<svg xmlns="http://www.w3.org/2000/svg" width="29.467" height="38.685" viewBox="0 0 29.467 38.685">
  <g id="admin" transform="translate(0 0)">
    <path id="Path_516" data-name="Path 516" d="M31.133,426.951A1.133,1.133,0,0,1,30,425.818v-4.684a1.133,1.133,0,1,1,2.267,0v4.684A1.133,1.133,0,0,1,31.133,426.951Zm0,0" transform="translate(-27.733 -388.267)" fill="#beebfa"/>
    <path id="Path_517" data-name="Path 517" d="M331.133,426.951A1.133,1.133,0,0,1,330,425.818v-4.684a1.133,1.133,0,1,1,2.267,0v4.684A1.133,1.133,0,0,1,331.133,426.951Zm0,0" transform="translate(-305.067 -388.267)" fill="#7ed8f6"/>
    <path id="Path_518" data-name="Path 518" d="M54.933,245.667V250.2a1.133,1.133,0,0,1-2.267,0v-3.4H43.6v3.4a1.133,1.133,0,0,1-2.267,0v-3.4H32.267v3.4a1.133,1.133,0,0,1-2.267,0v-4.533a1.122,1.122,0,0,1,1.133-1.133h10.2v-3.4a1.133,1.133,0,1,1,2.267,0v3.4H53.8A1.122,1.122,0,0,1,54.933,245.667Zm0,0" transform="translate(-27.733 -221.867)" fill="#beebfa"/>
    <path id="Path_519" data-name="Path 519" d="M207.467,245.667V250.2a1.133,1.133,0,0,1-2.267,0v-3.4h-9.067v3.4A1.122,1.122,0,0,1,195,251.333V240a1.122,1.122,0,0,1,1.133,1.133v3.4h10.2A1.122,1.122,0,0,1,207.467,245.667Zm0,0" transform="translate(-180.267 -221.867)" fill="#7ed8f6"/>
    <path id="Path_520" data-name="Path 520" d="M182.267,421.133v4.684a1.133,1.133,0,1,1-2.267,0v-4.684a1.133,1.133,0,1,1,2.267,0Zm0,0" transform="translate(-166.4 -388.267)" fill="#beebfa"/>
    <path id="Path_521" data-name="Path 521" d="M196.133,421.133v4.684A1.122,1.122,0,0,1,195,426.951V420A1.122,1.122,0,0,1,196.133,421.133Zm0,0" transform="translate(-180.267 -388.267)" fill="#7ed8f6"/>
    <path id="Path_522" data-name="Path 522" d="M5.667,366.8H1.133A1.133,1.133,0,0,1,0,365.667v-4.533A1.133,1.133,0,0,1,1.133,360H5.667A1.133,1.133,0,0,1,6.8,361.133v4.533A1.133,1.133,0,0,1,5.667,366.8Zm0,0" transform="translate(0 -332.8)" fill="#beebfa"/>
    <path id="Path_523" data-name="Path 523" d="M155.667,360h-4.533A1.122,1.122,0,0,0,150,361.133v4.533a1.122,1.122,0,0,0,1.133,1.133h4.533a1.122,1.122,0,0,0,1.133-1.133v-4.533A1.122,1.122,0,0,0,155.667,360Zm0,0" transform="translate(-138.667 -332.8)" fill="#beebfa"/>
    <path id="Path_524" data-name="Path 524" d="M198.4,361.133v4.533a1.122,1.122,0,0,1-1.133,1.133H195V360h2.267A1.122,1.122,0,0,1,198.4,361.133Zm0,0" transform="translate(-180.267 -332.8)" fill="#7ed8f6"/>
    <path id="Path_525" data-name="Path 525" d="M305.667,366.8h-4.533A1.133,1.133,0,0,1,300,365.667v-4.533A1.133,1.133,0,0,1,301.133,360h4.533a1.133,1.133,0,0,1,1.133,1.133v4.533A1.133,1.133,0,0,1,305.667,366.8Zm0,0" transform="translate(-277.333 -332.8)" fill="#7ed8f6"/>
    <path id="Path_526" data-name="Path 526" d="M70.2,0a10.2,10.2,0,0,0-5.667,18.677L70.2,20.4l5.667-1.723A10.2,10.2,0,0,0,70.2,0Zm0,0" transform="translate(-55.467 0)" fill="#0b799d"/>
    <path id="Path_527" data-name="Path 527" d="M205.2,10.2a10.2,10.2,0,0,1-4.533,8.477L195,20.4V0a10.215,10.215,0,0,1,10.2,10.2Zm0,0" transform="translate(-180.267)" fill="#07485e"/>
    <path id="Path_528" data-name="Path 528" d="M153.4,60a3.4,3.4,0,1,0,3.4,3.4A3.4,3.4,0,0,0,153.4,60Zm0,0" transform="translate(-138.667 -55.467)" fill="#fff5f5"/>
    <path id="Path_529" data-name="Path 529" d="M198.4,63.4a3.4,3.4,0,0,1-3.4,3.4V60A3.4,3.4,0,0,1,198.4,63.4Zm0,0" transform="translate(-180.267 -55.467)" fill="#e1ebf0"/>
    <path id="Path_530" data-name="Path 530" d="M131.333,155.667v1.677a10.181,10.181,0,0,1-11.333,0v-1.677a5.667,5.667,0,0,1,11.333,0Zm0,0" transform="translate(-110.933 -138.667)" fill="#fff5f5"/>
    <path id="Path_531" data-name="Path 531" d="M200.667,155.667v1.677A10.133,10.133,0,0,1,195,159.067V150A5.669,5.669,0,0,1,200.667,155.667Zm0,0" transform="translate(-180.267 -138.667)" fill="#e1ebf0"/>
  </g>
</svg>
