<svg id="ui" xmlns="http://www.w3.org/2000/svg" width="40" height="40" viewBox="0 0 40 40">
  <path id="Path_430" data-name="Path 430" d="M66.423,307.441A19.778,19.778,0,0,1,36.4,302.355l1.3-5.986,5.756-1.069a10.621,10.621,0,0,0,10.1,7.477,10.4,10.4,0,0,0,6.188-2.016l5.531.844Z" transform="translate(-33.556 -272.23)" fill="#59c36a"/>
  <path id="Path_431" data-name="Path 431" d="M268.867,371.88l-1.148-5.836-5.531-.844A10.4,10.4,0,0,1,256,367.216v9.453A19.97,19.97,0,0,0,268.867,371.88Z" transform="translate(-236 -336.669)" fill="#00a66c"/>
  <g id="Connected_Home_1_" transform="translate(0 9.875)">
    <g id="Group_224" data-name="Group 224" transform="translate(0)">
      <g id="Group_223" data-name="Group 223">
        <g id="Group_222" data-name="Group 222">
          <path id="Path_432" data-name="Path 432" d="M9.453,136.525A10.922,10.922,0,0,0,9.9,139.6L2.844,146.65a19.447,19.447,0,0,1,0-20.25l5.662.974,1.393,6.08A10.921,10.921,0,0,0,9.453,136.525Z" transform="translate(0 -126.4)" fill="#ffda2d"/>
        </g>
      </g>
    </g>
  </g>
  <path id="Path_433" data-name="Path 433" d="M262.172,200.688a19.969,19.969,0,0,1-7.133,15.211l-6.68-6.68a10.371,10.371,0,0,0,3.258-3.844h-9.445A1.161,1.161,0,0,1,241,204.2v-7.031A1.16,1.16,0,0,1,242.172,196h18.5a1.158,1.158,0,0,1,1.148.961A19.873,19.873,0,0,1,262.172,200.688Z" transform="translate(-222.172 -180.688)" fill="#4086f4"/>
  <path id="Path_434" data-name="Path 434" d="M265.445,205.375a10.371,10.371,0,0,1-3.258,3.844l6.68,6.68a19.808,19.808,0,0,0,6.781-18.938A1.158,1.158,0,0,0,274.5,196H256v9.375Z" transform="translate(-236 -180.688)" fill="#4175df"/>
  <path id="Path_435" data-name="Path 435" d="M66.752,5.586a1.183,1.183,0,0,1-.328.867l-5.016,4.992a1.148,1.148,0,0,1-1.523.117,10.483,10.483,0,0,0-6.328-2.109,10.621,10.621,0,0,0-10.1,7.477L36.4,9.875A19.765,19.765,0,0,1,66.33,4.719a1.232,1.232,0,0,1,.422.867Z" transform="translate(-33.556)" fill="#ff641a"/>
  <path id="Path_436" data-name="Path 436" d="M262.328,11.562a1.147,1.147,0,0,0,1.523-.117l5.016-4.992a1.182,1.182,0,0,0,.328-.867,1.233,1.233,0,0,0-.422-.867A19.94,19.94,0,0,0,256,0V9.453A10.483,10.483,0,0,1,262.328,11.562Z" transform="translate(-236 0)" fill="#f03800"/>
</svg>
