<svg id="Group_196" data-name="Group 196" xmlns="http://www.w3.org/2000/svg" width="27.671" height="36.895" viewBox="0 0 27.671 36.895">
  <defs>
    <style>
      .cls-1 {
        fill: #f11818;
      }
    </style>
  </defs>
  <path id="Path_195" data-name="Path 195" class="cls-1" d="M91.054,4.452a1.07,1.07,0,0,0-1.076,0,8.572,8.572,0,0,1-4.212,1.082,8.031,8.031,0,0,1-5.78-2.275A9.273,9.273,0,0,0,73.3.615a9.629,9.629,0,0,0-5.614,1.746V1.845a1.845,1.845,0,1,0-3.689,0V35.05a1.845,1.845,0,1,0,3.689,0V19.062a1.076,1.076,0,0,0,.56-.221A8.338,8.338,0,0,1,73.3,17.217a8.043,8.043,0,0,1,5.792,2.275,9.267,9.267,0,0,0,6.672,2.644,9.611,9.611,0,0,0,5.374-1.568,1.23,1.23,0,0,0,.529-1.045V5.534A1.23,1.23,0,0,0,91.054,4.452Zm-24.6,30.6a.615.615,0,1,1-1.23,0V1.845a.615.615,0,1,1,1.23,0Zm23.981-15.5a8.5,8.5,0,0,1-4.673,1.359,8.031,8.031,0,0,1-5.78-2.275A9.273,9.273,0,0,0,73.3,15.988a9.624,9.624,0,0,0-5.614,1.734V3.948a8.141,8.141,0,0,1,5.614-2.1A8.043,8.043,0,0,1,79.094,4.12a9.267,9.267,0,0,0,6.672,2.644A9.839,9.839,0,0,0,90.439,5.62V19.548Z" transform="translate(-63.998)"/>
</svg>
