<svg xmlns="http://www.w3.org/2000/svg" width="29.732" height="22.647" viewBox="0 0 29.732 22.647">
  <defs>
    <style>
      .cls-1 {
        fill: #f11818;
      }
    </style>
  </defs>
  <g id="mail" transform="translate(0 -61)">
    <g id="Group_195" data-name="Group 195" transform="translate(0 61)">
      <path id="Path_187" data-name="Path 187" class="cls-1" d="M27.119,61H2.613A2.618,2.618,0,0,0,0,63.613V81.034a2.617,2.617,0,0,0,2.613,2.613H27.119a2.617,2.617,0,0,0,2.613-2.613V63.613A2.617,2.617,0,0,0,27.119,61Zm-.361,1.742L14.921,74.579,2.982,62.742ZM1.742,80.673V63.966l8.39,8.318Zm1.232,1.232,8.4-8.4,2.942,2.916a.871.871,0,0,0,1.229,0l2.868-2.868,8.35,8.35ZM27.99,80.673l-8.35-8.35,8.35-8.35Z" transform="translate(0 -61)"/>
    </g>
  </g>
</svg>
