<svg xmlns="http://www.w3.org/2000/svg" width="41.625" height="41.625" viewBox="0 0 41.625 41.625">
  <g id="Group_312" data-name="Group 312" transform="translate(-4815 9410.754)">
    <g id="Group_306" data-name="Group 306" transform="translate(4815 -9410.754)">
      <g id="Group_305" data-name="Group 305" transform="translate(0 0)">
        <path id="Path_576" data-name="Path 576" d="M114.93,357.5c5.558,0,6.216.021,8.41.122a11.492,11.492,0,0,1,3.864.715,6.9,6.9,0,0,1,3.951,3.951,11.514,11.514,0,0,1,.717,3.864c.1,2.195.12,2.852.12,8.41s-.021,6.216-.12,8.41a11.514,11.514,0,0,1-.717,3.864,6.887,6.887,0,0,1-3.951,3.951,11.524,11.524,0,0,1-3.864.717c-2.195.1-2.852.122-8.41.122s-6.216-.022-8.41-.122a11.515,11.515,0,0,1-3.864-.717,6.887,6.887,0,0,1-3.951-3.951,11.514,11.514,0,0,1-.717-3.864c-.1-2.195-.12-2.852-.12-8.41s.021-6.216.12-8.41a11.514,11.514,0,0,1,.717-3.864,6.9,6.9,0,0,1,3.951-3.951,11.483,11.483,0,0,1,3.864-.715c2.195-.1,2.852-.122,8.41-.122m0-3.75c-5.652,0-6.361.024-8.581.125a15.242,15.242,0,0,0-5.052.968,10.631,10.631,0,0,0-6.086,6.086,15.25,15.25,0,0,0-.968,5.052c-.1,2.22-.125,2.929-.125,8.581s.024,6.361.125,8.581a15.241,15.241,0,0,0,.968,5.052,10.639,10.639,0,0,0,6.086,6.088,15.286,15.286,0,0,0,5.052.967c2.22.1,2.929.125,8.581.125s6.361-.024,8.581-.125a15.286,15.286,0,0,0,5.052-.967,10.647,10.647,0,0,0,6.088-6.088,15.287,15.287,0,0,0,.967-5.052c.1-2.22.125-2.929.125-8.581s-.024-6.361-.125-8.581a15.3,15.3,0,0,0-.967-5.052,10.639,10.639,0,0,0-6.088-6.086,15.242,15.242,0,0,0-5.052-.968c-2.22-.1-2.929-.125-8.581-.125" transform="translate(-94.117 -353.751)" fill="#fff"/>
        <path id="Path_577" data-name="Path 577" d="M111.13,360.076a10.688,10.688,0,1,0,10.688,10.688,10.689,10.689,0,0,0-10.688-10.688m0,17.626a6.938,6.938,0,1,1,6.938-6.938,6.937,6.937,0,0,1-6.938,6.938" transform="translate(-90.317 -349.951)" fill="#fff"/>
        <path id="Path_578" data-name="Path 578" d="M117.495,360.751a2.5,2.5,0,1,1-2.5-2.5,2.5,2.5,0,0,1,2.5,2.5" transform="translate(-83.075 -351.047)" fill="#fff"/>
      </g>
    </g>
  </g>
</svg>
