<svg xmlns="http://www.w3.org/2000/svg" width="35.485" height="42.128" viewBox="0 0 35.485 42.128">
  <defs>
    <style>
      .cls-1 {
        fill: #2e2e2e;
      }
    </style>
  </defs>
  <path id="path4" class="cls-1" d="M34.742,32.831A22.9,22.9,0,0,1,32.477,36.9a20.69,20.69,0,0,1-2.918,3.526,5.66,5.66,0,0,1-3.75,1.651,9.4,9.4,0,0,1-3.464-.827,9.939,9.939,0,0,0-3.729-.824,10.276,10.276,0,0,0-3.835.824,10.318,10.318,0,0,1-3.313.871,5.329,5.329,0,0,1-3.835-1.7,21.726,21.726,0,0,1-3.052-3.651,25.251,25.251,0,0,1-3.227-6.41A23.471,23.471,0,0,1,0,22.729a13.951,13.951,0,0,1,1.832-7.3,10.747,10.747,0,0,1,3.837-3.881,10.322,10.322,0,0,1,5.187-1.464,12.214,12.214,0,0,1,4.012.934,12.9,12.9,0,0,0,3.182.936,19.043,19.043,0,0,0,3.529-1.1,11.664,11.664,0,0,1,4.8-.852,10.184,10.184,0,0,1,7.978,4.2,8.874,8.874,0,0,0-4.707,8.062,8.894,8.894,0,0,0,2.92,6.7,9.6,9.6,0,0,0,2.918,1.914q-.351,1.018-.744,1.953ZM26.613.843a8.987,8.987,0,0,1-2.3,5.895c-1.852,2.165-4.091,3.415-6.52,3.218a6.559,6.559,0,0,1-.049-.8A9.234,9.234,0,0,1,20.185,3.2,9.41,9.41,0,0,1,23.162.965,8.877,8.877,0,0,1,26.569,0a7.656,7.656,0,0,1,.044.843Z" transform="translate(0 -0.001)"/>
</svg>
