<svg xmlns="http://www.w3.org/2000/svg" width="27.734" height="20.8" viewBox="0 0 27.734 20.8">
  <defs>
    <style>
      .cls-1 {
        fill: #f11818;
      }
    </style>
  </defs>
  <g id="hide" transform="translate(0 -64.008)">
    <g id="Group_186" data-name="Group 186" transform="translate(10.43 70.97)">
      <g id="Group_185" data-name="Group 185" transform="translate(0 0)">
        <path id="Path_182" data-name="Path 182" class="cls-1" d="M199.255,192.711a.578.578,0,1,0-.817.817,3.466,3.466,0,1,1-4.9,4.9.578.578,0,0,0-.817.817,4.622,4.622,0,1,0,6.536-6.536Z" transform="translate(-192.55 -192.542)"/>
      </g>
    </g>
    <g id="Group_188" data-name="Group 188" transform="translate(9.244 69.785)">
      <g id="Group_187" data-name="Group 187" transform="translate(0 0)">
        <path id="Path_183" data-name="Path 183" class="cls-1" d="M176.1,170.739a4.576,4.576,0,0,0-5.428,4.543,4.523,4.523,0,0,0,.081.805.579.579,0,0,0,.567.477.512.512,0,0,0,.1-.009.578.578,0,0,0,.468-.669,3.351,3.351,0,0,1-.062-.6,3.425,3.425,0,0,1,4.071-3.405.577.577,0,1,0,.2-1.137Z" transform="translate(-170.668 -170.659)"/>
      </g>
    </g>
    <g id="Group_190" data-name="Group 190" transform="translate(7.227 67.933)">
      <g id="Group_189" data-name="Group 189" transform="translate(0 0)">
        <path id="Path_184" data-name="Path 184" class="cls-1" d="M153.8,142.563a28.068,28.068,0,0,0-7.568-6.037.578.578,0,1,0-.53,1.027,27.153,27.153,0,0,1,6.881,5.383c-1.377,1.492-6.8,6.933-12.513,6.933a13.323,13.323,0,0,1-5.81-1.392.577.577,0,1,0-.5,1.04,14.449,14.449,0,0,0,6.312,1.508c7.12,0,13.464-7.4,13.731-7.716A.577.577,0,0,0,153.8,142.563Z" transform="translate(-133.435 -136.461)"/>
      </g>
    </g>
    <g id="Group_192" data-name="Group 192" transform="translate(0 66.318)">
      <g id="Group_191" data-name="Group 191" transform="translate(0 0)">
        <path id="Path_185" data-name="Path 185" class="cls-1" d="M17.658,107.325a11.931,11.931,0,0,0-3.791-.666c-7.12,0-13.464,7.4-13.731,7.716a.578.578,0,0,0-.032.7A21.451,21.451,0,0,0,5.4,120.1a.574.574,0,0,0,.8-.163.576.576,0,0,0-.162-.8,21.131,21.131,0,0,1-4.718-4.362c1.33-1.444,6.787-6.965,12.543-6.965a10.816,10.816,0,0,1,3.423.6.57.57,0,0,0,.731-.363A.577.577,0,0,0,17.658,107.325Z" transform="translate(0 -106.659)"/>
      </g>
    </g>
    <g id="Group_194" data-name="Group 194" transform="translate(3.466 64.008)">
      <g id="Group_193" data-name="Group 193" transform="translate(0 0)">
        <path id="Path_186" data-name="Path 186" class="cls-1" d="M84.627,64.177a.578.578,0,0,0-.817,0L64.165,83.822a.578.578,0,0,0,.817.817L84.627,64.994A.578.578,0,0,0,84.627,64.177Z" transform="translate(-63.996 -64.008)"/>
      </g>
    </g>
  </g>
</svg>
