<svg xmlns="http://www.w3.org/2000/svg" width="30.301" height="36.319" viewBox="0 0 30.301 36.319">
  <defs>
    <style>
      .cls-1 {
        fill: #f11818;
      }
    </style>
  </defs>
  <g id="user_1_" data-name="user (1)" transform="translate(0 0)">
    <path id="Path_196" data-name="Path 196" class="cls-1" d="M95.779,17.495a8.464,8.464,0,0,0,6.185-2.563,8.465,8.465,0,0,0,2.563-6.185,8.465,8.465,0,0,0-2.563-6.185,8.746,8.746,0,0,0-12.37,0,8.464,8.464,0,0,0-2.563,6.185,8.465,8.465,0,0,0,2.563,6.185A8.467,8.467,0,0,0,95.779,17.495ZM91.1,4.068a6.617,6.617,0,0,1,9.36,0,6.324,6.324,0,0,1,1.939,4.68,6.324,6.324,0,0,1-1.939,4.68,6.616,6.616,0,0,1-9.36,0,6.323,6.323,0,0,1-1.94-4.68,6.323,6.323,0,0,1,1.94-4.68Zm0,0" transform="translate(-80.858)"/>
    <path id="Path_197" data-name="Path 197" class="cls-1" d="M30.227,257.7a21.608,21.608,0,0,0-.294-2.295,18.08,18.08,0,0,0-.564-2.307,11.4,11.4,0,0,0-.949-2.152,8.112,8.112,0,0,0-1.43-1.864,6.306,6.306,0,0,0-2.055-1.291,7.1,7.1,0,0,0-2.623-.475,2.662,2.662,0,0,0-1.422.6c-.426.278-.925.6-1.481.955a8.487,8.487,0,0,1-1.916.844,7.441,7.441,0,0,1-4.688,0,8.461,8.461,0,0,1-1.915-.844c-.551-.352-1.05-.674-1.482-.955a2.66,2.66,0,0,0-1.421-.6,7.092,7.092,0,0,0-2.623.475,6.3,6.3,0,0,0-2.055,1.291,8.114,8.114,0,0,0-1.43,1.864A11.418,11.418,0,0,0,.931,253.1a18.124,18.124,0,0,0-.564,2.307,21.46,21.46,0,0,0-.294,2.3c-.048.694-.073,1.415-.073,2.145a6.031,6.031,0,0,0,1.791,4.563,6.447,6.447,0,0,0,4.615,1.683H23.894a6.448,6.448,0,0,0,4.615-1.683,6.028,6.028,0,0,0,1.791-4.563c0-.732-.025-1.454-.073-2.145Zm-3.185,5.166a4.341,4.341,0,0,1-3.148,1.1H6.406a4.341,4.341,0,0,1-3.148-1.1,3.938,3.938,0,0,1-1.13-3.021c0-.681.022-1.352.067-2a19.354,19.354,0,0,1,.266-2.067,15.984,15.984,0,0,1,.5-2.034A9.3,9.3,0,0,1,3.73,252a6.013,6.013,0,0,1,1.051-1.377,4.183,4.183,0,0,1,1.367-.85,4.9,4.9,0,0,1,1.676-.323c.075.04.207.115.422.255.438.285.942.61,1.5.966a10.545,10.545,0,0,0,2.405,1.075,9.568,9.568,0,0,0,6,0,10.557,10.557,0,0,0,2.407-1.076c.571-.365,1.061-.681,1.5-.966.215-.14.348-.216.422-.255a4.9,4.9,0,0,1,1.677.323,4.189,4.189,0,0,1,1.367.85A6,6,0,0,1,26.569,252a9.265,9.265,0,0,1,.772,1.749,15.946,15.946,0,0,1,.5,2.034,19.519,19.519,0,0,1,.266,2.067h0c.045.643.068,1.314.068,2a3.938,3.938,0,0,1-1.131,3.021Zm0,0" transform="translate(0 -229.773)"/>
  </g>
</svg>
