<svg xmlns="http://www.w3.org/2000/svg" width="39.561" height="39.561" viewBox="0 0 39.561 39.561">
  <g id="Group_310" data-name="Group 310" transform="translate(-4980.249 9636.75)">
    <path id="Path_573" data-name="Path 573" d="M279.147,166.566h0a19.031,19.031,0,0,1-19.031-19.03h0a19.031,19.031,0,0,1,19.031-19.031h0a19.03,19.03,0,0,1,19.03,19.031h0A19.03,19.03,0,0,1,279.147,166.566Z" transform="translate(4720.883 -9764.505)" fill="none" stroke="#fff" stroke-miterlimit="10" stroke-width="1.5"/>
    <path id="Path_574" data-name="Path 574" d="M269.007,153.907a11.834,11.834,0,0,0,18.2-10.507,8.433,8.433,0,0,0,2.075-2.154,8.3,8.3,0,0,1-2.389.655,4.166,4.166,0,0,0,1.829-2.3,8.347,8.347,0,0,1-2.641,1.01,4.164,4.164,0,0,0-7.09,3.8,11.807,11.807,0,0,1-8.575-4.347,4.165,4.165,0,0,0,1.287,5.555,4.147,4.147,0,0,1-1.885-.521,4.166,4.166,0,0,0,3.337,4.133,4.165,4.165,0,0,1-1.878.07,4.162,4.162,0,0,0,3.886,2.89A8.367,8.367,0,0,1,269.007,153.907Z" transform="translate(4720.883 -9764.505)" fill="#fff"/>
  </g>
</svg>
