<svg xmlns="http://www.w3.org/2000/svg" width="37.468" height="37.468" viewBox="0 0 37.468 37.468">
  <g id="man-learning-online-laptop-education" transform="translate(-2 -2)">
    <path id="Path_553" data-name="Path 553" d="M7.5,22H16.24V35.114H5V24.5A2.5,2.5,0,0,1,7.5,22Z" transform="translate(-1.127 -7.511)" fill="#ff5560"/>
    <path id="Path_554" data-name="Path 554" d="M25.616,28.873V32h-2.5v2.5H15V27h8.742A1.873,1.873,0,0,1,25.616,28.873Z" transform="translate(-4.882 -9.388)" fill="#2488ff"/>
    <path id="Path_555" data-name="Path 555" d="M29.873,35v2.5H28V35Z" transform="translate(-9.764 -12.393)" fill="#f5e0cd"/>
    <path id="Path_556" data-name="Path 556" d="M18.873,15v2.5h-.624a1.249,1.249,0,0,1,0-2.5Z" transform="translate(-5.633 -4.882)" fill="#f0d0b4"/>
    <path id="Path_557" data-name="Path 557" d="M28.118,11.122H20a2.5,2.5,0,0,1,2.5-2.5,2.388,2.388,0,0,1,.562.069A3.09,3.09,0,0,1,25,8,3.122,3.122,0,0,1,28.118,11.122Z" transform="translate(-6.76 -2.253)" fill="#3e3d42"/>
    <path id="Path_558" data-name="Path 558" d="M15.747,28.873V32H12V28.873a1.873,1.873,0,1,1,3.747,0Z" transform="translate(-3.755 -9.388)" fill="#57a4ff"/>
    <path id="Path_559" data-name="Path 559" d="M29,39h3.747v2.5H29Z" transform="translate(-10.14 -13.895)" fill="#787680"/>
    <path id="Path_560" data-name="Path 560" d="M22.991,37.5V40H13V35h3.122v2.5h6.869Z" transform="translate(-4.131 -12.393)" fill="#f5e0cd"/>
    <path id="Path_561" data-name="Path 561" d="M3,43H35.472v2.5H3Z" transform="translate(-0.376 -15.397)" fill="#957856"/>
    <path id="Path_562" data-name="Path 562" d="M4,47H35.223v8.742H4Z" transform="translate(-0.751 -16.899)" fill="#806749"/>
    <path id="Path_563" data-name="Path 563" d="M48.738,27l-3.747,7.494H35L38.122,27Z" transform="translate(-12.393 -9.388)" fill="#9bfbff"/>
    <path id="Path_564" data-name="Path 564" d="M35,39h9.991v2.5H35Z" transform="translate(-12.393 -13.895)" fill="#e9e9ea"/>
    <path id="Path_565" data-name="Path 565" d="M51.987,3V13.616H42.62l-1.873,1.873-1.873-1.873H37V3Z" transform="translate(-13.144 -0.376)" fill="#ffda44"/>
    <path id="Path_566" data-name="Path 566" d="M23.5,21v4.371a1.249,1.249,0,1,1-2.5,0V21Z" transform="translate(-7.135 -7.135)" fill="#f0d0b4"/>
    <path id="Path_567" data-name="Path 567" d="M21,23v1.249A3.129,3.129,0,0,0,23.5,25.5V24.249A3.129,3.129,0,0,1,21,23Z" transform="translate(-7.135 -7.886)" fill="#ecc19c"/>
    <path id="Path_568" data-name="Path 568" d="M20,13h6.245v4.371a3.122,3.122,0,0,1-6.245,0Z" transform="translate(-6.76 -4.131)" fill="#f5e0cd"/>
    <path id="Path_569" data-name="Path 569" d="M36.9,19.77a.624.624,0,0,0-.556-.905H25.73a.616.616,0,0,0-.575.387l-2.966,7.106H20.734V25.109a.624.624,0,0,0,.624-.624V21.363a2.5,2.5,0,0,0-2.5-2.5H16.987v-.056a3.751,3.751,0,0,0,3.122-3.691V11.371h1.249a.624.624,0,0,0,.624-.624A3.747,3.747,0,0,0,18.236,7a3.656,3.656,0,0,0-2.092.656,3.038,3.038,0,0,0-.406-.031,3.122,3.122,0,0,0-3.122,3.122v.624a1.873,1.873,0,1,0,0,3.747,4.145,4.145,0,0,0,.056.624h-6.3a3.122,3.122,0,0,0-3.122,3.122v9.991H2.624A.624.624,0,0,0,2,29.481v2.5a.624.624,0,0,0,.624.624v8.118a.624.624,0,0,0,.624.624H34.472a.624.624,0,0,0,.624-.624V32.6a.624.624,0,0,0,.624-.624v-2.5a.624.624,0,0,0-.624-.624H33.223V27.133Zm-24.285-5.9a.624.624,0,1,1,0-1.249ZM23.232,27.607h8.742v1.249H23.232Zm-1.249,0v1.249h-2.5V27.607ZM18.86,26.358V25.109h.624v1.249ZM15.738,8.873a2.061,2.061,0,0,1,.418.05.624.624,0,0,0,.531-.119,2.477,2.477,0,0,1,3.965,1.318H13.971a1.882,1.882,0,0,1,1.767-1.249Zm-1.873,2.5h5v3.747a2.5,2.5,0,0,1-5,0Zm1.873,7.437v1.305a.624.624,0,0,1-.624.624.593.593,0,0,1-.443-.194.579.579,0,0,1-.181-.431V18.359a3.737,3.737,0,0,0,1.249.45Zm-1.955,2.623a1.855,1.855,0,0,0,1.33.556,1.879,1.879,0,0,0,1.873-1.873H18.86a1.253,1.253,0,0,1,1.249,1.249v2.5H18.86v-.624H17.612v3.122h-5v-5a2.439,2.439,0,0,0-.35-1.249h.974a1.845,1.845,0,0,0,.543,1.318Zm-4.29,3.678h1.873v1.873a.624.624,0,0,0,.624.624h6.245v1.249H9.494ZM8.869,23.86v-2.5a1.249,1.249,0,0,1,2.5,0v2.5Zm-4.371-5a1.879,1.879,0,0,1,1.873-1.873h6.75c.037.062.075.131.119.194v1.68H10.118a2.5,2.5,0,0,0-2.5,2.5v3.122a.624.624,0,0,0,.624.624v3.747H4.5ZM33.848,40.1H3.873V32.6H33.848Zm.624-9.991v1.249H3.249V30.105Zm-2.261-3.747H23.544l2.6-6.245h9.186Z" transform="translate(0 -1.878)" fill="none"/>
    <path id="Path_570" data-name="Path 570" d="M51.612,2H36.624A.624.624,0,0,0,36,2.624V13.24a.624.624,0,0,0,.624.624h1.615l1.69,1.69a.624.624,0,0,0,.883,0l1.69-1.69h9.108a.624.624,0,0,0,.624-.624V2.624A.624.624,0,0,0,51.612,2Zm-.624,10.616H42.245a.624.624,0,0,0-.441.183l-1.432,1.432L38.939,12.8a.624.624,0,0,0-.441-.183H37.249V3.249H50.987Z" transform="translate(-12.768)"/>
    <path id="Path_571" data-name="Path 571" d="M42.6,12.591a.624.624,0,0,0,.52.278.656.656,0,0,0,.115-.011.624.624,0,0,0,.5-.478l1.138-5.131h6.37V6H44.371a.624.624,0,0,0-.61.489l-.931,4.195-.437-.656a.624.624,0,0,0-.52-.281H40V11h1.539Z" transform="translate(-14.27 -1.502)"/>
    <path id="Path_572" data-name="Path 572" d="M53.04,9.293l-1.432,1.432L50.176,9.293l-.883.883,1.432,1.432L49.293,13.04l.883.883,1.432-1.432,1.432,1.432.883-.883-1.432-1.432,1.432-1.432Z" transform="translate(-17.76 -2.739)"/>
  </g>
</svg>
