<svg xmlns="http://www.w3.org/2000/svg" width="746.59" height="649.129" viewBox="0 0 746.59 649.129">
  <defs>
    <style>
      .cls-1 {
        fill: #3b2d51;
      }

      .cls-2 {
        fill: #ef7335;
      }

      .cls-3 {
        fill: #d1401e;
      }

      .cls-4 {
        fill: #732c84;
      }

      .cls-5 {
        fill: #ddcba6;
      }

      .cls-6 {
        fill: #efe3ca;
      }

      .cls-7 {
        opacity: 0.45;
      }

      .cls-29, .cls-44, .cls-47, .cls-63, .cls-66, .cls-7 {
        mix-blend-mode: overlay;
      }

      .cls-29, .cls-44, .cls-47, .cls-63, .cls-66, .cls-7, .cls-9 {
        isolation: isolate;
      }

      .cls-8 {
        fill: #fff;
      }

      .cls-9 {
        fill: #c94343;
        opacity: 0.6;
        mix-blend-mode: multiply;
      }

      .cls-10 {
        fill: #964532;
      }

      .cls-11 {
        fill: #7f3425;
      }

      .cls-12 {
        fill: #ffb94a;
      }

      .cls-13 {
        fill: #db2828;
      }

      .cls-14 {
        fill: #ed4848;
      }

      .cls-15 {
        fill: #ffe9ca;
      }

      .cls-16 {
        fill: #6d2d4a;
      }

      .cls-17 {
        fill: #934769;
      }

      .cls-18 {
        fill: #ff9566;
      }

      .cls-19 {
        fill: #ffb882;
      }

      .cls-20, .cls-44 {
        fill: #eaddbe;
      }

      .cls-21 {
        fill: #f4e9d3;
      }

      .cls-22 {
        fill: #d8c091;
      }

      .cls-23 {
        fill: #7c3552;
      }

      .cls-24 {
        fill: #dbc7a1;
      }

      .cls-25 {
        fill: #e0d0b1;
      }

      .cls-26 {
        fill: #ff9a3e;
      }

      .cls-27 {
        fill: #ed8129;
      }

      .cls-28 {
        fill: #f4e9d4;
      }

      .cls-29 {
        opacity: 0.39;
      }

      .cls-30 {
        fill: #5e85bc;
      }

      .cls-31 {
        fill: #4e75a5;
      }

      .cls-32 {
        fill: #749dce;
      }

      .cls-33 {
        fill: #db5b3e;
      }

      .cls-34 {
        fill: #66423b;
      }

      .cls-35 {
        fill: #7c4343;
      }

      .cls-36 {
        fill: #ea7b59;
      }

      .cls-37 {
        fill: #491d2e;
      }

      .cls-38 {
        fill: #ffebeb;
      }

      .cls-39 {
        fill: #ef8f6f;
      }

      .cls-40 {
        fill: #8b54b2;
      }

      .cls-41 {
        fill: #634c84;
      }

      .cls-42 {
        fill: #e2d5af;
      }

      .cls-43 {
        fill: #f7f0da;
      }

      .cls-45 {
        fill: #f24c5c;
      }

      .cls-46 {
        fill: #d63444;
      }

      .cls-48 {
        fill: #b72036;
      }

      .cls-49 {
        fill: #6d3e4c;
      }

      .cls-50 {
        fill: #592e3c;
      }

      .cls-51 {
        fill: #ff9239;
      }

      .cls-52 {
        fill: #ff6d2c;
      }

      .cls-53 {
        fill: #7a4939;
      }

      .cls-54 {
        fill: #603428;
      }

      .cls-55 {
        fill: #dbccad;
      }

      .cls-56 {
        fill: #d1bb93;
      }

      .cls-57 {
        fill: #ba9e70;
      }

      .cls-58 {
        fill: #f9f0e1;
      }

      .cls-59 {
        fill: #f2e9ce;
      }

      .cls-60 {
        fill: #4f3131;
      }

      .cls-61 {
        fill: #b7bf47;
      }

      .cls-62 {
        fill: #999b32;
      }

      .cls-63 {
        opacity: 0.58;
      }

      .cls-64, .cls-66 {
        fill: #fff9f1;
      }

      .cls-65 {
        fill: #a5a53a;
      }

      .cls-66 {
        opacity: 0.42;
      }

      .cls-67 {
        fill: #602540;
      }

      .cls-68 {
        fill: #d8c5a0;
      }

      .cls-69 {
        fill: #dbc8a2;
      }

      .cls-70 {
        fill: #d3bb92;
      }

      .cls-71 {
        fill: #f4e8ce;
      }

      .cls-72 {
        fill: #ce5230;
      }

      .cls-73 {
        fill: #ceb995;
      }

      .cls-74 {
        fill: #4b6f9b;
      }

      .cls-75 {
        fill: #f4e6c9;
      }

      .cls-76 {
        fill: #633d37;
      }

      .cls-77 {
        fill: #ffc69f;
      }

      .cls-78 {
        fill: #472922;
      }

      .cls-79 {
        fill: #fff6e3;
      }
    </style>
  </defs>
  <g id="Group_221" data-name="Group 221" transform="translate(-103.075 -66.846)">
    <path id="Path_200" data-name="Path 200" class="cls-1" d="M623.105,349.27H334.693l-58.66,261.09H564.445Z" transform="translate(64.68 105.615)"/>
    <g id="Group_207" data-name="Group 207" transform="translate(352.674 66.846)">
      <g id="Group_199" data-name="Group 199" transform="translate(11.917 110.432)">
        <path id="Path_201" data-name="Path 201" class="cls-2" d="M347.9,149.841H304.89L293.413,340.553h48.681Z" transform="translate(-293.413 -146.241)"/>
        <path id="Path_202" data-name="Path 202" class="cls-3" d="M351.86,149.841h-43.7L296.819,340.553h49.456Z" transform="translate(-292.139 -146.241)"/>
        <path id="Path_203" data-name="Path 203" class="cls-4" d="M358.5,153.272H314.8l-18.084,185.4,46.189.236Z" transform="translate(-292.177 -144.959)"/>
        <path id="Path_204" data-name="Path 204" class="cls-5" d="M346.763,151.679c-10.52,4.136-21.577,4.541-33.063,1.966L300.842,337.352c14.089-2.553,27.608-2.586,37.39.408Z" transform="translate(-290.634 -145.554)"/>
        <path id="Path_205" data-name="Path 205" class="cls-2" d="M449.891,147.266H335.611l-14.858,194.25H437.394Z" transform="translate(-283.189 -147.204)"/>
        <path id="Path_206" data-name="Path 206" class="cls-2" d="M453.666,147.266H339.386l-14.859,194.25H441.169Z" transform="translate(-281.777 -147.204)"/>
        <path id="Path_207" data-name="Path 207" class="cls-6" d="M325.594,154.661A64.741,64.741,0,0,1,313.7,153.11L300.842,336.817a114.6,114.6,0,0,1,16.716-1.807Z" transform="translate(-290.634 -145.019)"/>
        <g id="Group_197" data-name="Group 197" class="cls-7" transform="translate(48.544 7.561)">
          <path id="Path_208" data-name="Path 208" class="cls-8" d="M434.984,331.976H328.744L342.18,152.724h104.1ZM330.735,330.13H433.252l11.066-175.561H343.892Z" transform="translate(-328.744 -152.724)"/>
        </g>
        <g id="Group_198" data-name="Group 198" class="cls-7" transform="translate(54.805 14.139)">
          <path id="Path_209" data-name="Path 209" class="cls-8" d="M428.224,323.606H333.3l12-166.094H438.32ZM335.079,321.9h91.6l9.887-162.673H346.835Z" transform="translate(-333.301 -157.512)"/>
        </g>
        <path id="Path_210" data-name="Path 210" class="cls-9" d="M401.912,147.221,374.89,223.575l-27.544-14.817-15.189,30.685L324.616,341.4h113.43L453.6,271.178,428.149,147.221Z" transform="translate(-281.744 -147.221)"/>
      </g>
      <path id="Path_211" data-name="Path 211" class="cls-10" d="M406.565,90.631C391.33,85.2,395.5,70.179,401.346,67.676s20.451.207,17.321,14.4S406.565,90.631,406.565,90.631Z" transform="translate(-243.114 -66.846)"/>
      <path id="Path_212" data-name="Path 212" class="cls-11" d="M408.213,80.556c-6.628-2.362-9.579-6.539-10.321-10.713-3.284,5.427-3.174,15.449,8.672,19.667,0,0,8.973,5.635,12.1-8.556a16.263,16.263,0,0,0,.382-4.875C415.268,84.974,408.213,80.556,408.213,80.556Z" transform="translate(-243.114 -65.725)"/>
      <path id="Path_213" data-name="Path 213" class="cls-12" d="M408.967,88.878c-11.97-3.137-8.69-11.824-4.1-13.272s16.067.121,13.608,8.326S408.967,88.878,408.967,88.878Z" transform="translate(-241.373 -63.75)"/>
      <path id="Path_214" data-name="Path 214" class="cls-10" d="M413.647,150.7c-21.078-15.026-20.869-51.128-11.478-64.9s34.851-13.774,45.7-1.252,11.964,32.625,2.573,43.267S413.647,150.7,413.647,150.7Z" transform="translate(-243.101 -63.682)"/>
      <path id="Path_215" data-name="Path 215" class="cls-11" d="M440.266,114.492c-.471-22.466-3.614-28.279-13.2-33.934,0,0,11.312,9.427,5.97,22.624Z" transform="translate(-231.513 -61.718)"/>
      <path id="Path_216" data-name="Path 216" class="cls-11" d="M437.69,114.048c-6.48-23.958-11.111-29.531-22-33.595,0,0,13.59,7.744,11.9,22.984Z" transform="translate(-235.768 -61.757)"/>
      <path id="Path_217" data-name="Path 217" class="cls-11" d="M424.989,108.533c-11.533-9.744-16.641-22.111-9.335-30.76a15.548,15.548,0,0,1,1.908-1.863c-6.289,1.4-11.934,4.588-15.394,9.662-9.391,13.774-9.6,49.876,11.478,64.9,0,0,27.408-12.243,36.8-22.886a26.262,26.262,0,0,0,5.934-13.457C448.741,121.586,436.008,117.842,424.989,108.533Z" transform="translate(-243.101 -63.456)"/>
      <path id="Path_218" data-name="Path 218" class="cls-13" d="M467.776,218.758c-1.569-34.508-36.87-73.488-40.488-73.765s-2.975,14.429,5.929,28.9,18.7,48.763,19.811,52.38S468.053,224.881,467.776,218.758Z" transform="translate(-232.203 -37.623)"/>
      <path id="Path_219" data-name="Path 219" class="cls-14" d="M427.627,142.584c-1.671-.128-2.518,3.649-2.075,9.174,6.944,5.368,35.539,41.953,38.622,73.4,2.09-1.521,3.615-3.443,3.521-5.5C466.127,185.151,431.245,142.863,427.627,142.584Z" transform="translate(-232.124 -38.524)"/>
      <path id="Path_220" data-name="Path 220" class="cls-14" d="M368.212,221.443c1.568-34.508,36.868-77.77,40.485-78.049s2.365,24.625-6.54,39.095-18.085,42.85-19.2,46.467S367.933,227.564,368.212,221.443Z" transform="translate(-253.525 -38.221)"/>
      <path id="Path_221" data-name="Path 221" class="cls-13" d="M399.383,173.517c-10.905,15.862-14.689,39.9-30.95,39.2-.991-.044,7.043,13.547,5.254,13.337,3.921,2.086,8.593,2.778,9.219.745,1.113-3.618,13.543-33.626,22.446-48.1,5.005-8.134-.034-21.134.629-29.536C403.615,157.058,404.179,166.54,399.383,173.517Z" transform="translate(-253.472 -36.062)"/>
      <path id="Path_222" data-name="Path 222" class="cls-15" d="M390.953,200.446c-6.754-5.5-20.109-7.384-23.565-5.184s-2.043,18.224,7.855,21.052S390.953,200.446,390.953,200.446Z" transform="translate(-254.469 -19.159)"/>
      <path id="Path_223" data-name="Path 223" class="cls-14" d="M434.795,170.992l-37.321-18.334c17.322,80.554-1.267,70.591,3.061,101.86,21.187,8.733,41.569,5.346,61.214-9.133C442.1,241.237,434.795,170.992,434.795,170.992Z" transform="translate(-242.58 -34.756)"/>
      <path id="Path_224" data-name="Path 224" class="cls-13" d="M414,254.256c-4.744-19.83,2.355-38.525,15.857-41.755a19.2,19.2,0,0,1,13,1.711c-5.681-20.4-8.061-43.219-8.061-43.219l-37.321-18.334c17.322,80.554-1.267,70.591,3.061,101.86a63.073,63.073,0,0,0,14.736,4.126C414.8,257.216,414.364,255.761,414,254.256Z" transform="translate(-242.58 -34.756)"/>
      <path id="Path_225" data-name="Path 225" class="cls-16" d="M449.352,238.453,341.323,192.789c24.981,38.854,60.818,75.641,72.916,79s54.251,5.095,62.6,1.768S550,201.048,550,201.048,465.629,238.061,449.352,238.453Z" transform="translate(-263.579 -19.748)"/>
      <path id="Path_226" data-name="Path 226" class="cls-17" d="M471.827,212.227l-39.041,23.8,13.118-13.9Z" transform="translate(-229.375 -12.479)"/>
      <path id="Path_227" data-name="Path 227" class="cls-14" d="M397.439,146.635c-7.029,12.471.058,58.094,3.243,61.148s50.069-2.235,52.4-4.272-9.236-55.6-12.989-58.4-15.754-7.636-18.522-7.891S398.2,145.291,397.439,146.635Z" transform="translate(-243.717 -40.532)"/>
      <path id="Path_228" data-name="Path 228" class="cls-13" d="M403.771,199.13c-2.424-2.461-8.259-29.51-8.586-49.559-2.737,17.594,2.578,52.146,5.287,54.744,3.185,3.053,50.281-3.39,52.61-5.426.3-.265.365-1.418.246-3.2C443.461,198.257,406.722,202.126,403.771,199.13Z" transform="translate(-243.721 -35.91)"/>
      <path id="Path_229" data-name="Path 229" class="cls-18" d="M428.183,191.816c-.059,3.888-2.238,4.949-2.709,7.542s-1.826-1.12-1.238-3.241S428.183,191.816,428.183,191.816Z" transform="translate(-232.627 -20.112)"/>
      <path id="Path_230" data-name="Path 230" class="cls-19" d="M422.116,195.04c3.684,2.578,5.3,1.649,6.067.765a14.817,14.817,0,0,0,1.65-3.24l-4.184-1.179.118,2.652S419.759,193.39,422.116,195.04Z" transform="translate(-233.57 -20.272)"/>
      <path id="Path_231" data-name="Path 231" class="cls-19" d="M420.143,195.9c3.684,2.579,5.3,1.65,6.069.767a14.856,14.856,0,0,0,1.649-3.241l-4.182-1.178.118,2.65S417.787,194.248,420.143,195.9Z" transform="translate(-234.308 -19.952)"/>
      <path id="Path_232" data-name="Path 232" class="cls-19" d="M375.391,202.358c15.88-6.151,63.877-11.771,63.877-11.771l.382,1.223s-46.705,27.053-61.538,24.215C363.227,213.175,368.972,204.843,375.391,202.358Z" transform="translate(-253.332 -20.572)"/>
      <path id="Path_233" data-name="Path 233" class="cls-18" d="M383.577,207.676c-5.577-1.3-8.33-3.149-9.267-5.084-5.922,2.936-10.239,10.5,3.8,13.189,14.833,2.839,61.538-24.215,61.538-24.215l-.1-.33C424.848,197.864,394.977,210.324,383.577,207.676Z" transform="translate(-253.332 -20.329)"/>
      <path id="Path_234" data-name="Path 234" class="cls-19" d="M431.238,191.535c-2.907-2.514-9.27-2.043-14.454.157l-1.492,3.064c4.32-.943,10.683.943,12.647,1.414S434.144,194.048,431.238,191.535Z" transform="translate(-235.917 -20.852)"/>
      <path id="Path_235" data-name="Path 235" class="cls-19" d="M427.046,190.873c3.361,2.785,8.322,9.248,8.258,10.39-.063,1.117-3.91-2.542-4.92-3.877a35.811,35.811,0,0,0-4.851-4.108Z" transform="translate(-232.088 -20.465)"/>
      <path id="Path_236" data-name="Path 236" class="cls-20" d="M467.665,151.8l-36.729,80.971-37.007,1.948-2.226,1.948,115.474-1.67,39.511-83.2Z" transform="translate(-244.739 -35.077)"/>
      <path id="Path_237" data-name="Path 237" class="cls-21" d="M446.989,151.8c32.9,14.116,46.406,41.615,39.512,83.2l39.511-83.2Z" transform="translate(-224.064 -35.077)"/>
      <path id="Path_238" data-name="Path 238" class="cls-22" d="M433.689,236.057,471.624,151.8h-3.959l-36.729,80.971-37.007,1.948-2.226,1.948Z" transform="translate(-244.739 -35.077)"/>
      <path id="Path_239" data-name="Path 239" class="cls-17" d="M520.02,181.436c-14.608,3.339-47.582,40.069-86.4,95.162l.835,2.087s67.382-51.923,75.311-61.523S534.628,178.1,520.02,181.436Z" transform="translate(-229.062 -24.092)"/>
      <path id="Path_240" data-name="Path 240" class="cls-23" d="M511.124,207.908c-6.051,6.566-43.8,33.2-64.682,47.753q-6.284,8.545-12.819,17.812l.835,2.087s67.775-50.9,75.7-60.5c4.262-5.158,10.722-17.069,13.891-25.527A107.422,107.422,0,0,1,511.124,207.908Z" transform="translate(-229.062 -20.967)"/>
      <path id="Path_241" data-name="Path 241" class="cls-23" d="M437.958,266.789l35.235-26.482s17.4-32.626,35.513-55.276C492.706,196.5,467.243,226.015,437.958,266.789Z" transform="translate(-227.441 -22.649)"/>
      <path id="Path_242" data-name="Path 242" class="cls-17" d="M343.1,190.684c-8.764,6.261,10.016,19.2,27.547,37.146s49.667,23.374,100.17,47.582l2.087-1.253C412.8,217.4,351.861,184.424,343.1,190.684Z" transform="translate(-263.747 -20.818)"/>
      <path id="Path_243" data-name="Path 243" class="cls-23" d="M451.952,254.554c-42.222-17.76-69.789-23.3-85.79-39.106-9.37-9.256-19.055-17.124-24.9-23.44-3.141,6.826,13.2,20.362,28.958,36.5,17.53,17.947,50.086,21.917,100.589,46.127l2.087-1.253C465.9,266.769,458.89,260.5,451.952,254.554Z" transform="translate(-263.746 -20.04)"/>
      <path id="Path_244" data-name="Path 244" class="cls-24" d="M439,260.548l6.1-9.773a107.066,107.066,0,0,0-19.571-14.707Z" transform="translate(-232.09 -3.564)"/>
      <path id="Path_245" data-name="Path 245" class="cls-20" d="M438,258.556l-7.683-2.674s6.118-10.79,22.646-18.614Z" transform="translate(-230.3 -3.115)"/>
      <path id="Path_246" data-name="Path 246" class="cls-15" d="M435.039,143.1c-5.218-2.792-12.939-6.888-15.026-7.1-2.2-.22-15.711,6.224-21.426,9.322,10.86,37.833,29.772,53.563,29.772,53.563S436.777,144.029,435.039,143.1Z" transform="translate(-242.164 -40.986)"/>
      <path id="Path_247" data-name="Path 247" class="cls-13" d="M435.039,141.354l-1.293-.691c-.894,13.036-6.8,51.53-6.8,51.53s-17.262-14.376-28.273-48.66l-.085.047c10.86,37.833,30.178,55.582,30.178,55.582S436.777,142.284,435.039,141.354Z" transform="translate(-242.164 -39.241)"/>
      <path id="Path_248" data-name="Path 248" class="cls-19" d="M404.919,150.73c-.209-24.834,3.548-39.233,3.548-39.233l14.817,13.356-.835,22.33s-3.548,7.513-8.139,8.138S404.919,150.73,404.919,150.73Z" transform="translate(-239.799 -50.148)"/>
      <g id="Group_201" data-name="Group 201" transform="translate(76.587 252.507)">
        <path id="Path_249" data-name="Path 249" class="cls-25" d="M541.37,252.338H449.064c-16.335,0-21.03,47.54-4.695,47.54h92.305C528.336,293.48,529.489,259.881,541.37,252.338Z" transform="translate(-305.427 -249.986)"/>
        <path id="Path_250" data-name="Path 250" class="cls-26" d="M489.8,250.634H361.121c-25.563-.764-28.382,51.466-2.821,52.23H486.98C465.065,302.21,467.883,249.98,489.8,250.634Z" transform="translate(-340.481 -250.626)"/>
        <path id="Path_251" data-name="Path 251" class="cls-27" d="M485.837,294.976c-9.355-1.1-13.844-12-13.947-23.576H340.5c.256,12.015,5.995,23.342,17.8,23.7H485.837Z" transform="translate(-340.475 -242.857)"/>
        <path id="Path_252" data-name="Path 252" class="cls-12" d="M541.073,250.632H438.6l-.925,4.949h102.47a3.122,3.122,0,0,0,2.938-2.474h0A2,2,0,0,0,541.073,250.632Z" transform="translate(-304.133 -250.624)"/>
        <path id="Path_253" data-name="Path 253" class="cls-12" d="M539.371,285.517H437.288l-.989,4.3H538.382a3.092,3.092,0,0,0,2.969-2.149h0A1.791,1.791,0,0,0,539.371,285.517Z" transform="translate(-304.648 -237.578)"/>
        <path id="Path_254" data-name="Path 254" class="cls-28" d="M532.5,259.28H452.838c-16.334,0-18.2,31.914-1.867,31.914h80.014C528.295,282.864,528.728,269,532.5,259.28Z" transform="translate(-303.409 -247.39)"/>
        <path id="Path_255" data-name="Path 255" class="cls-12" d="M456,250.634H440.7c-12.022,9.851-13.418,42.345-1.97,52.23h14.45C431.264,302.209,434.082,249.98,456,250.634Z" transform="translate(-306.68 -250.625)"/>
        <g id="Group_200" data-name="Group 200" class="cls-29" transform="translate(6.959 1.832)">
          <path id="Path_256" data-name="Path 256" class="cls-8" d="M462.283,300.534H364.3a17.725,17.725,0,0,1-15.643-9.638c-4.552-8.391-4.063-20.664,1.162-29.182,3.973-6.475,10.1-9.942,17.327-9.746h96.886l-2.142,1.653c-5.893,4.551-9.614,13.69-9.711,23.849-.088,9.291,2.924,17.3,8.058,21.423Zm-95.676-46.728c-6.316,0-11.7,3.137-15.215,8.873-4.9,7.99-5.369,19.487-1.112,27.336a15.765,15.765,0,0,0,14.043,8.671l92.983,0c-4.483-4.753-7.057-12.482-6.973-21.237.092-9.614,3.318-18.4,8.554-23.639H367.121C366.95,253.807,366.778,253.805,366.608,253.805Z" transform="translate(-345.545 -251.959)"/>
        </g>
      </g>
      <g id="Group_203" data-name="Group 203" transform="translate(0 296.501)">
        <path id="Path_257" data-name="Path 257" class="cls-25" d="M592.628,285.939H449.75c-25.285,0-26.62,91.382-1.337,91.382H591.291C577.586,365.019,575.179,300.437,592.628,285.939Z" transform="translate(-230.378 -281.415)"/>
        <path id="Path_258" data-name="Path 258" class="cls-30" d="M512.61,282.662H313.431c-39.662-1.467-37.51,98.928,2.153,100.4h199.18C480.761,381.8,478.608,281.405,512.61,282.662Z" transform="translate(-284.739 -282.646)"/>
        <path id="Path_259" data-name="Path 259" class="cls-31" d="M512.9,367.895c-14.619-2.11-22.927-23.066-24.529-45.316H284.986c1.9,23.095,12.193,44.868,30.506,45.545H512.914Z" transform="translate(-284.647 -267.713)"/>
        <path id="Path_260" data-name="Path 260" class="cls-32" d="M592.695,282.658H434.083l-.813,9.515H591.881c2.116,0,4.013-2.13,4.237-4.757h0C596.344,284.788,594.811,282.658,592.695,282.658Z" transform="translate(-229.194 -282.642)"/>
        <path id="Path_261" data-name="Path 261" class="cls-32" d="M594.435,349.715H436.424l-.995,8.263H593.44a4.631,4.631,0,0,0,4.328-4.132h0A3.467,3.467,0,0,0,594.435,349.715Z" transform="translate(-228.387 -257.565)"/>
        <path id="Path_262" data-name="Path 262" class="cls-28" d="M580.123,299.281H456.81c-25.284,0-24.193,61.347,1.091,61.347H581.754C576.549,344.615,575.489,317.965,580.123,299.281Z" transform="translate(-227.282 -276.426)"/>
        <path id="Path_263" data-name="Path 263" class="cls-32" d="M460.291,282.661H436.612c-17.379,18.939-15.487,81.4,3.466,100.4h22.367C428.441,381.8,426.288,281.4,460.291,282.661Z" transform="translate(-232.419 -282.645)"/>
        <g id="Group_202" data-name="Group 202" class="cls-29" transform="translate(10.785 3.521)">
          <path id="Path_264" data-name="Path 264" class="cls-8" d="M476.3,378.581l-151.667,0c-10.584-.35-19.6-6.926-25.414-18.525-8.094-16.13-8.869-39.721-1.844-56.093,5.343-12.448,14.4-19.112,25.605-18.734H472.953l-3.109,3.178c-8.553,8.747-13.172,26.314-12.055,45.845,1.022,17.856,6.684,33.251,15.144,41.176ZM322.379,288.759c-9.776,0-17.712,6.029-22.445,17.055-6.589,15.358-5.879,37.46,1.691,52.547,3.7,7.384,10.667,16.265,22.819,16.668l143.927,0c-7.531-9.134-12.478-23.992-13.443-40.82-1.057-18.48,2.841-35.375,10.292-45.438H323.176C322.911,288.762,322.643,288.759,322.379,288.759Z" transform="translate(-292.589 -285.209)"/>
        </g>
      </g>
      <path id="Path_265" data-name="Path 265" class="cls-9" d="M427.4,182.294c9.759-5.757,14.767-17.436,14.062-29.907-.607-.368-1.274-.749-2.038-1.147-.011-.074-.019-.176-.033-.232-.036-.133-.08-.217-.135-.246-3.094-1.656-7.062-3.765-10.22-5.254l.756-20.208a34.779,34.779,0,0,0-15.857-9.792,191.539,191.539,0,0,0-2.435,33.118c-3.282,1.553-6.47,3.159-8.611,4.316l-.085.047c.014.048.029.095.043.143-.574.279-1.079.534-1.492.76-1.645.547-7.384,6.721-14.034,16C397.265,184.392,414.315,190.007,427.4,182.294Z" transform="translate(-246.378 -48.649)"/>
      <path id="Path_266" data-name="Path 266" class="cls-19" d="M406.179,112.061C398.186,146.462,426,159.9,426,159.9s21.934-21.107,24.553-47.514c1.415-14.275-.65-18.628-14.887-20.868C421.46,89.278,408.258,103.113,406.179,112.061Z" transform="translate(-239.865 -57.711)"/>
      <path id="Path_267" data-name="Path 267" class="cls-11" d="M409.127,130.832c7.316-21.294,8.927-39.2.22-38.265S396.816,124.068,409.127,130.832Z" transform="translate(-241.156 -57.24)"/>
      <path id="Path_268" data-name="Path 268" class="cls-19" d="M410.639,128.1c1.829-18.216.245-20.447-5.479-20.483C398.595,107.572,398.049,125.088,410.639,128.1Z" transform="translate(-241.413 -51.601)"/>
      <path id="Path_269" data-name="Path 269" class="cls-33" d="M408.174,122.813c1.1-10.916.147-12.253-3.284-12.275C400.956,110.515,400.63,121.01,408.174,122.813Z" transform="translate(-240.83 -50.507)"/>
      <path id="Path_270" data-name="Path 270" class="cls-19" d="M408.1,122.531c.03-7.022-.742-7.815-3.2-7.616C402.072,115.143,402.563,121.851,408.1,122.531Z" transform="translate(-240.437 -48.88)"/>
      <g id="Group_206" data-name="Group 206" transform="translate(175.533 48.55)">
        <path id="Path_271" data-name="Path 271" class="cls-34" d="M434.23,117.066c.49-2.862-.544-5.376-2.322-5.617s-3.615,1.9-4.111,4.775.544,5.38,2.315,5.613S433.732,119.938,434.23,117.066Z" transform="translate(-406.821 -98.723)"/>
        <path id="Path_272" data-name="Path 272" class="cls-34" d="M421.7,115.632c.675-3.293-.3-6.246-2.208-6.621s-3.969,2-4.644,5.292.313,6.256,2.207,6.618S421.022,118.919,421.7,115.632Z" transform="translate(-411.697 -99.642)"/>
        <path id="Path_273" data-name="Path 273" class="cls-34" d="M412.684,113.067s6.779-3.524,11.9-1.812c0,0-.811-2.837-4.867-2.727S412.684,113.067,412.684,113.067Z" transform="translate(-412.426 -99.81)"/>
        <path id="Path_274" data-name="Path 274" class="cls-34" d="M437.079,115.409s-4.809-4.151-9.751-3.523a4.729,4.729,0,0,1,5.03-1.562C435.827,111.077,437.079,115.409,437.079,115.409Z" transform="translate(-406.949 -99.194)"/>
        <g id="Group_204" data-name="Group 204">
          <path id="Path_275" data-name="Path 275" class="cls-35" d="M412.558,109.171l-.062-.734a16.03,16.03,0,0,1,11.18-6.256l-.18,2.521C421.122,104.291,415.455,105.874,412.558,109.171Z" transform="translate(-412.496 -102.182)"/>
        </g>
        <g id="Group_205" data-name="Group 205" transform="translate(22.456 1.27)">
          <path id="Path_276" data-name="Path 276" class="cls-35" d="M438.315,111.877c-2.344-4.614-8.024-6.3-9.475-6.327l.595-2.444c1.621.1,6.82,2.219,9.432,7.965Z" transform="translate(-428.84 -103.106)"/>
        </g>
        <path id="Path_277" data-name="Path 277" class="cls-36" d="M427.519,121.817c-.038.092-.036.183-.081.271a3.539,3.539,0,0,1-4.813,1.482,3.647,3.647,0,0,1-1.867-2.616,3.615,3.615,0,0,0,1.678,4.573,3.44,3.44,0,0,0,5.084-3.71Z" transform="translate(-409.507 -95.162)"/>
        <path id="Path_278" data-name="Path 278" class="cls-37" d="M416.284,127.562l12.135,1.952s-2.62,5.85-7.54,4.922C416.165,133.546,416.284,127.562,416.284,127.562Z" transform="translate(-411.079 -92.691)"/>
        <path id="Path_279" data-name="Path 279" class="cls-38" d="M416.9,127.837l10.3,1.658s.169,2.8-5.71,1.962C415.3,130.573,416.9,127.837,416.9,127.837Z" transform="translate(-410.918 -92.588)"/>
        <path id="Path_280" data-name="Path 280" class="cls-39" d="M422.551,134.586c.187-.747-1.052-.174-2.352-.39s-2.164-1.138-2.352-.39.714,1.528,2.013,1.744S422.363,135.333,422.551,134.586Z" transform="translate(-410.504 -90.464)"/>
      </g>
    </g>
    <g id="Group_211" data-name="Group 211" transform="translate(452.455 290.102)">
      <path id="Path_281" data-name="Path 281" class="cls-40" d="M547.547,318.6H402.668l-9.314,139.76,95.153,130.661Z" transform="translate(-343.902 -195.956)"/>
      <path id="Path_282" data-name="Path 282" class="cls-41" d="M550.228,322.354H405.349l-9.314,139.76,95.153,130.661Z" transform="translate(-342.9 -194.552)"/>
      <path id="Path_283" data-name="Path 283" class="cls-42" d="M561.11,327.225H416.232L363.544,571.513,502.07,597.645Z" transform="translate(-355.05 -192.731)"/>
      <path id="Path_284" data-name="Path 284" class="cls-43" d="M413.679,338.093c25.785-.69,47.454-2.516,47.454-8.409a3.328,3.328,0,0,0-.121-.72H405.368Z" transform="translate(-339.41 -192.08)"/>
      <path id="Path_285" data-name="Path 285" class="cls-1" d="M402.837,326.258c17.688,2.781,26.406,11.863,23.9,23.3C423.54,364.105,402.837,326.258,402.837,326.258Z" transform="translate(-340.356 -193.092)"/>
      <path id="Path_286" data-name="Path 286" class="cls-12" d="M575.284,341.778H430.405L371.365,612.2H516.244Z" transform="translate(-352.126 -187.288)"/>
      <path id="Path_287" data-name="Path 287" class="cls-12" d="M595.794,341.778H450.915L391.874,612.2H536.753Z" transform="translate(-344.456 -187.288)"/>
      <path id="Path_288" data-name="Path 288" class="cls-44" d="M433.872,355.447l-51.805,237.28H509.191L561,355.447Zm73.221,233.366H387.053l48.918-229.451h120.04Z" transform="translate(-348.123 -182.177)"/>
      <path id="Path_289" data-name="Path 289" class="cls-9" d="M420.4,318.685l3.9,4.674-.98,6.78,16.935,20.318h22.143l5.249-31.771Z" transform="translate(-333.789 -195.924)"/>
      <path id="Path_290" data-name="Path 290" class="cls-45" d="M641.539,293.441H490.268a8.878,8.878,0,0,0-8.862,8.344L462.149,621.826a8.877,8.877,0,0,0,8.861,9.412H633.566a8.876,8.876,0,0,0,8.874-8.656l7.973-320.041A8.877,8.877,0,0,0,641.539,293.441Z" transform="translate(-318.182 -205.365)"/>
      <path id="Path_291" data-name="Path 291" class="cls-46" d="M546.312,293.44H486.968c-1.841,0-2.881,3.656-2.371,8.344l34.778,320.041c.555,5.1,2.716,9.41,4.721,9.41h63.771c1.889,0,2.927-3.842,2.336-8.656L551,302.54C550.385,297.551,548.268,293.44,546.312,293.44Z" transform="translate(-309.83 -205.365)"/>
      <g id="Group_208" data-name="Group 208" class="cls-47" transform="translate(180.558 102.212)">
        <path id="Path_292" data-name="Path 292" class="cls-20" d="M619.076,616.2h-130.3v-1.083l.269-311.389H626.4a9.235,9.235,0,0,1,9.234,9.467l-7.325,294A9.185,9.185,0,0,1,619.076,616.2ZM490.94,614.037H619.076a7.03,7.03,0,0,0,7.069-6.9l7.325-294a7.069,7.069,0,0,0-7.07-7.248H491.209Z" transform="translate(-488.776 -303.729)"/>
      </g>
      <path id="Path_293" data-name="Path 293" class="cls-46" d="M499.448,293.441H451.174l-5.758,337.8h53.739Z" transform="translate(-324.433 -205.365)"/>
      <path id="Path_294" data-name="Path 294" class="cls-48" d="M449.633,293.441l-.094,5.525,41.738.427,2.969,331.844h3.368l.293-337.8Z" transform="translate(-322.892 -205.365)"/>
      <path id="Path_295" data-name="Path 295" class="cls-49" d="M556.746,382.18s36.233,105.636,36.293,109.327-50.244,91.4-50.244,91.4l-1.188-.352,25.432-88.586-21.5-52.731Z" transform="translate(-288.462 -172.18)"/>
      <path id="Path_296" data-name="Path 296" class="cls-50" d="M552.913,400.865l-14.082,26.326,27.628,58.845-23.815,89.53.234.07c9.487-21.644,34.682-86.522,34.632-89.6C577.467,483.5,563.62,432.315,552.913,400.865Z" transform="translate(-289.5 -165.192)"/>
      <path id="Path_297" data-name="Path 297" class="cls-49" d="M518.082,395.425c15.423,73.558,60.96,198.719,60.96,198.719H580.4L562.225,434.42l9.019-8.547-5.136-43.27S514.834,379.932,518.082,395.425Z" transform="translate(-297.314 -172.087)"/>
      <path id="Path_298" data-name="Path 298" class="cls-50" d="M522.946,413.753c21.181-19.707,28.732-19.154,34.811-16.761a17.893,17.893,0,0,0,11.419.554l-2.947-11.973-42.546-2.209Z" transform="translate(-295.44 -171.737)"/>
      <g id="Group_209" data-name="Group 209" transform="translate(220.62 214.04)">
        <path id="Path_299" data-name="Path 299" class="cls-50" d="M526.147,385.12c-5.481,1.947-8.991,4.882-8.065,9.3,15.423,73.558,60.96,198.719,60.96,198.719h1.25C572.98,567.379,540.191,450.948,526.147,385.12Z" transform="translate(-517.934 -385.12)"/>
      </g>
      <path id="Path_300" data-name="Path 300" class="cls-50" d="M554.015,425.809l-12.57-4.835,12.708-.276,11.051-9.117Z" transform="translate(-288.522 -161.185)"/>
      <path id="Path_301" data-name="Path 301" class="cls-12" d="M541.179,306.118c23.844,19.531,32.722,56.565,32.722,56.565l45.911-2.029,2.284,10.908s-38.3,22.321-58.6,16.233S541.179,306.118,541.179,306.118Z" transform="translate(-288.622 -200.624)"/>
      <path id="Path_302" data-name="Path 302" class="cls-18" d="M600.12,358.051c9.807,2.624,16.438.276,19.2-3.039s7.322-11.879,2.763-12.294-24.035,7.459-24.035,7.459Z" transform="translate(-267.355 -186.943)"/>
      <path id="Path_303" data-name="Path 303" class="cls-51" d="M577.644,370.994c-13.421-4.026-8.1-37.2-36.465-64.876,0,0,2.029,75.588,22.321,81.676s58.6-16.233,58.6-16.233l-1.289-6.159C607.849,368.232,591.672,375.2,577.644,370.994Z" transform="translate(-288.622 -200.624)"/>
      <path id="Path_304" data-name="Path 304" class="cls-20" d="M607.2,358.748c0,.473-6.493-13.924-6.493-13.924l-12.708.905,1.473,9.439,3.868.158L588.73,358l4.974,7.867Z" transform="translate(-271.115 -186.149)"/>
      <path id="Path_305" data-name="Path 305" class="cls-12" d="M523.5,300.211c-19.971,25.3-13.624,59.58-8.924,75.893s-2.911,49.224,9.612,63.774c0,0,18.088-19.8,30.759-18.142s15.744,8.086,19.062,5.249-.9-42.369,1.208-53.245-1.033-40.239-15.114-57.263S523.5,300.211,523.5,300.211Z" transform="translate(-300.369 -202.835)"/>
      <path id="Path_306" data-name="Path 306" class="cls-52" d="M520.874,309.5c-2.209,0-4.343,1.121-6.367,3.171-8.5,22.279-3.7,46.884.07,59.956,4.7,16.314-2.911,49.224,9.612,63.774,0,0,8.758-9.581,18.355-14.854a277.024,277.024,0,0,0,1.537-29.533C544.082,346.444,533.692,309.5,520.874,309.5Z" transform="translate(-300.367 -199.358)"/>
      <path id="Path_307" data-name="Path 307" class="cls-53" d="M532.826,307.19c-13.4-20.979-7.68-29.529-7.68-29.529s-7.267-11.008.109-21.38c0,0,.6-15.513,19.2-18.984,0,0,12.261-13.213,21.99-5.591,0,0,11.364-9.028,16.754,8.611s-1.378,17.513-1.378,17.513,10.647,22.849-6.546,28.437S532.826,307.19,532.826,307.19Z" transform="translate(-295.813 -229.337)"/>
      <path id="Path_308" data-name="Path 308" class="cls-54" d="M574.09,286.276s-13.174-.653-17.173-12.735c0,0-12.155-9.658-3.953-26.706,0,0-2.021-10.677,2.655-17.007-6.155,1.9-11.17,7.285-11.17,7.285-18.6,3.471-19.194,18.984-19.194,18.984-7.375,10.372-.109,21.38-.109,21.38s-5.716,8.55,7.68,29.528c0,0,24.194-14.69,41.343-20.552C574.116,286.342,574.09,286.276,574.09,286.276Z" transform="translate(-295.813 -229.153)"/>
      <path id="Path_309" data-name="Path 309" class="cls-20" d="M546.237,305.518l-26.473-5.308c20.8,9.893,40.7,28.146,40.7,28.146S553.607,310.01,546.237,305.518Z" transform="translate(-296.63 -202.833)"/>
      <path id="Path_310" data-name="Path 310" class="cls-19" d="M519.764,313.12l19.278-47.434,16.741,22.575L548.68,322Z" transform="translate(-296.63 -215.744)"/>
      <path id="Path_311" data-name="Path 311" class="cls-55" d="M654.084,288.375,612.231,366.5,544,372.588l.254,1.268h93.092l47.434-77.872Z" transform="translate(-287.568 -207.259)"/>
      <path id="Path_312" data-name="Path 312" class="cls-56" d="M612.231,345.236,544,351.324l.254,1.268h93.092L616,349.551Z" transform="translate(-287.568 -185.995)"/>
      <path id="Path_313" data-name="Path 313" class="cls-57" d="M544.182,351.418h93.092l-21.339-3.041Z" transform="translate(-287.498 -184.821)"/>
      <path id="Path_314" data-name="Path 314" class="cls-6" d="M643.38,289.975l-47.036,80.244,21.424,3.039L665.2,295.386Z" transform="translate(-267.992 -206.661)"/>
      <path id="Path_315" data-name="Path 315" class="cls-58" d="M637.549,289.975l-25.612,83.283,47.434-77.872Z" transform="translate(-262.161 -206.661)"/>
      <path id="Path_316" data-name="Path 316" class="cls-52" d="M513.869,360.046c2.84,17.04-2.705,45.929,8.512,59.582,8.45-35.153,21.9-47.218,50.875-44.75-.236-7.922-.342-15.366.232-19.744C557.551,352.94,530.688,351.11,513.869,360.046Z" transform="translate(-298.834 -182.967)"/>
      <path id="Path_317" data-name="Path 317" class="cls-12" d="M541.789,365.3c-2.121-31.706-11.918-66.607-17.221-64.83-6.272,2.1-16.744,15.391-18.6,34.415-1.7,17.4,10.218,56.19,18.969,63.291s58.724-28.286,71.982-34.121L599.3,349.6C580.944,349.1,557.3,356.742,541.789,365.3Z" transform="translate(-301.85 -202.76)"/>
      <path id="Path_318" data-name="Path 318" class="cls-51" d="M534.679,349.989c15.552-6.518,36.138-11.409,52.3-10.173l-2.518,11.647c.6-.3,1.16-.57,1.656-.789l2.387-14.458C571.544,335.76,550.078,342.248,534.679,349.989Z" transform="translate(-291.052 -189.377)"/>
      <path id="Path_319" data-name="Path 319" class="cls-51" d="M530.117,383.7c-8.751-7.1-18.933-50.075-17.236-67.472a58.811,58.811,0,0,1,1.554-8.789,55.42,55.42,0,0,0-8.461,24.812c-1.7,17.4,8.486,60.37,17.236,67.472s60.457-32.467,73.714-38.3L598.4,352.5C580.372,362.341,538,390.1,530.117,383.7Z" transform="translate(-301.857 -200.128)"/>
      <path id="Path_320" data-name="Path 320" class="cls-59" d="M581.112,541.147H562.518s-2.569-4.59,1.228-6.491C568.657,532.2,581.112,541.147,581.112,541.147Z" transform="translate(-280.959 -115.319)"/>
      <path id="Path_321" data-name="Path 321" class="cls-59" d="M554.438,544.519H543.973l-4.639-14.368s4.4-7.874,6.631-3.729c1.377,2.553.544,10.35.574,13.558A49.828,49.828,0,0,0,554.438,544.519Z" transform="translate(-289.312 -118.69)"/>
      <path id="Path_322" data-name="Path 322" class="cls-41" d="M407.259,323.984C404.5,332.41,424.8,348.3,429.913,350.506L414.718,354.1l-15.332-22.515,1.15-13.032Z" transform="translate(-341.647 -195.975)"/>
      <path id="Path_323" data-name="Path 323" class="cls-12" d="M439,354.557c-15.818-9.032-21.206-24.316-22.747-36.007L357.362,588.961c2.453,13.593,8.42,24.8,19.988,32.211Z" transform="translate(-357.362 -195.975)"/>
      <path id="Path_324" data-name="Path 324" class="cls-44" d="M478.357,391.675h-22.6l-2.7,180.022H478.22Z" transform="translate(-321.576 -168.629)"/>
      <path id="Path_325" data-name="Path 325" class="cls-44" d="M455.907,312.893h22.6l1.686-8.341H455.034Z" transform="translate(-320.837 -201.21)"/>
      <path id="Path_326" data-name="Path 326" class="cls-44" d="M455.907,326.164h22.6l1.686-8.341H455.034Z" transform="translate(-320.837 -196.247)"/>
      <path id="Path_327" data-name="Path 327" class="cls-18" d="M588.689,338.154c.416,4.362-.642,7.134-1.614,7.634s-4.274-1.109-4.827-2.5S588.321,334.306,588.689,338.154Z" transform="translate(-273.276 -189.046)"/>
      <path id="Path_328" data-name="Path 328" class="cls-19" d="M588.309,336.018c-.29,8.2-1.087,8.942-2.321,9.689s-5.075-.232-5.51-1.517.29-4.515,1.305-4.248a13.956,13.956,0,0,0,2.248.349Z" transform="translate(-273.973 -189.442)"/>
      <path id="Path_329" data-name="Path 329" class="cls-19" d="M589.715,334.862c-1.706-3.3-14.925-3.047-21.963,3.506l4.329,11.789c6.077-2.626,11.343-7.228,15.181-6.848S591.42,338.162,589.715,334.862Z" transform="translate(-278.684 -190.652)"/>
      <path id="Path_330" data-name="Path 330" class="cls-19" d="M584.8,337.292c-.29,8.2-1.088,8.942-2.321,9.689s-5.075-.232-5.511-1.517.291-4.515,1.305-4.248a13.975,13.975,0,0,0,2.248.349Z" transform="translate(-275.287 -188.966)"/>
      <path id="Path_331" data-name="Path 331" class="cls-19" d="M581.763,333.088c4.441,1.018,7.608,3.113,9.085,5.159a27.568,27.568,0,0,1,3.37,8.476c.062,1.2-2.481,2.7-3.024,1.132s-2.245-6.271-2.705-6.463-4.983-2.589-5.2-2.549S581.763,333.088,581.763,333.088Z" transform="translate(-273.445 -190.538)"/>
      <path id="Path_332" data-name="Path 332" class="cls-20" d="M579.145,350.768c0,.554-6.493-16.3-6.493-16.3l-12.708,1.059,1.473,11.051,3.868.184-4.6,3.131,4.974,9.208Z" transform="translate(-281.604 -190.022)"/>
      <path id="Path_333" data-name="Path 333" class="cls-20" d="M518.388,302.309l3.684-6.078,29.008,10.774-1.75,5.525Z" transform="translate(-297.144 -204.321)"/>
      <path id="Path_334" data-name="Path 334" class="cls-9" d="M552.969,318.53c-.2-.238-.394-.449-.592-.673l.952-3.009-1.051-.39,3.207-15.233c-4.814-9.023-11.508-18.024-19.025-23.965l-11.767,28.952-.372-.139-3.684,6.078.469.154c-2.628,1.275-5.793,4.27-8.733,8.6,16.673-.633,39.811,15.9,48.293,10.8a4.36,4.36,0,0,0,1.52-1.63A73.505,73.505,0,0,0,552.969,318.53Z" transform="translate(-299.394 -212.164)"/>
      <path id="Path_335" data-name="Path 335" class="cls-19" d="M538.816,258.08c-10.134,24.869-10.029,48.093-9.946,49.891s16.324,13.821,21.9,14.917c0,0,19.8-25.023,23.9-45.945s-1.2-26.087-7.472-27.378S542.747,248.435,538.816,258.08Z" transform="translate(-293.23 -221.986)"/>
      <path id="Path_336" data-name="Path 336" class="cls-54" d="M535.357,290.972c13.756-32.912,17.609-48.792,5.887-42.8s-10.906,38.016-10.906,38.016Z" transform="translate(-292.68 -222.759)"/>
      <path id="Path_337" data-name="Path 337" class="cls-19" d="M536.694,273.775c.341-7.782-8.395-14.767-9.984-6.385s3.675,20.85,5.768,18.309S536.578,276.387,536.694,273.775Z" transform="translate(-294.143 -216.529)"/>
      <path id="Path_338" data-name="Path 338" class="cls-33" d="M534.3,273.016c.214-4.9-5.277-9.285-6.276-4.013s2.31,13.11,3.626,11.512S534.225,274.658,534.3,273.016Z" transform="translate(-293.612 -215.399)"/>
      <path id="Path_339" data-name="Path 339" class="cls-19" d="M533.04,274.855c.14-3.216-3.468-6.1-4.125-2.638s1.52,8.616,2.385,7.566A11.8,11.8,0,0,0,533.04,274.855Z" transform="translate(-293.253 -213.889)"/>
      <g id="Group_210" data-name="Group 210" transform="translate(248.486 38.06)">
        <path id="Path_340" data-name="Path 340" class="cls-60" d="M559.279,274.836c.918-2.123.677-4.208-.534-4.651s-2.931.925-3.844,3.052-.676,4.206.53,4.645S558.366,276.967,559.279,274.836Z" transform="translate(-532.184 -252.153)"/>
        <path id="Path_341" data-name="Path 341" class="cls-19" d="M553.323,268.627c1.831-.636,2.653,22.091,1.507,24.58-.566,1.239-8.242-3-8.242-3S552.989,268.735,553.323,268.627Z" transform="translate(-535.085 -252.709)"/>
        <path id="Path_342" data-name="Path 342" class="cls-36" d="M553.73,269.23c.844,4.845,1.658,21.18.684,23.245-.441.936-5.286-1.455-7.265-2.546-.132.46-.216.725-.216.725s8.062,4.92,8.6,3.681C556.567,291.942,555.207,270.461,553.73,269.23Z" transform="translate(-534.956 -252.479)"/>
        <path id="Path_343" data-name="Path 343" class="cls-60" d="M549.963,270.925c1.085-2.058,1.022-4.158-.139-4.7s-2.987.673-4.072,2.722-1.031,4.159.132,4.71S548.873,272.973,549.963,270.925Z" transform="translate(-535.69 -253.654)"/>
        <path id="Path_344" data-name="Path 344" class="cls-53" d="M561.223,259.286c-.633-1.823-11.445-2.462-14.1-2.186s-3.208,2.212-3.3,4.239,11.291,6.463,15.27,4.141C560.922,264.406,561.856,261.11,561.223,259.286Z" transform="translate(-536.12 -257.038)"/>
        <path id="Path_345" data-name="Path 345" class="cls-53" d="M557.988,267.494c-.423,3.615,5.635,5.361,7.062,3.876s2.653-3.153,2.014-4.652-4.513-6.356-6.028-5.367S558.177,265.831,557.988,267.494Z" transform="translate(-530.83 -255.475)"/>
        <path id="Path_346" data-name="Path 346" class="cls-36" d="M544.412,292.229c.192-.375-.721-1.293-2.04-2.051s-2.54-1.068-2.731-.694.721,1.294,2.04,2.051S544.221,292.6,544.412,292.229Z" transform="translate(-537.693 -244.964)"/>
        <path id="Path_347" data-name="Path 347" class="cls-36" d="M538.216,283.959c.246-.426.405-.683.405-.683,3.4,4.876,5.81,7.746,13.591,11.625a8.126,8.126,0,0,0-.811.613C546.741,293.78,539.009,287.43,538.216,283.959Z" transform="translate(-538.216 -247.226)"/>
      </g>
      <path id="Path_348" data-name="Path 348" class="cls-18" d="M615.335,353c3.776-3.96,6.906-12.065,5.985-14.918s-3.407-1.75-4.144-.554-1.565,10.13-2.025,12.249A4.743,4.743,0,0,0,615.335,353Z" transform="translate(-261.021 -189.347)"/>
      <path id="Path_349" data-name="Path 349" class="cls-18" d="M613.483,354.657c3.122-2.957,4.913-9.008,3.521-11.14a2.564,2.564,0,0,0-4.236-.412c-.539.894.109,7.564,0,9.145A3.188,3.188,0,0,0,613.483,354.657Z" transform="translate(-261.931 -187.141)"/>
    </g>
    <g id="Group_220" data-name="Group 220" transform="translate(103.075 369.923)">
      <path id="Path_350" data-name="Path 350" class="cls-61" d="M222.443,357.731H360.859L380.406,607.2H224.061Z" transform="translate(-58.436 -261.143)"/>
      <path id="Path_351" data-name="Path 351" class="cls-62" d="M236.422,496.337l51.968-138.582h21.654l-8.407,24.965,7.642-1.529,6.878,122.788H340.1l12.737,48.147h10.19L372.2,582.7l3.821,24.2H222.411Z" transform="translate(-58.448 -261.134)"/>
      <g id="Group_212" data-name="Group 212" class="cls-63" transform="translate(169.103 104.109)">
        <path id="Path_352" data-name="Path 352" class="cls-64" d="M226.152,364.352,349.725,363.2l13.692,232.568-135.805.73Zm121.78.833-119.87,1.109,1.469,228.167,131.821-.713Z" transform="translate(-226.152 -363.205)"/>
      </g>
      <path id="Path_353" data-name="Path 353" class="cls-65" d="M322.6,357.731h34.965L372.835,607.2h-36.7Z" transform="translate(-20.982 -261.143)"/>
      <path id="Path_354" data-name="Path 354" class="cls-66" d="M333.049,385.556h17.107l10.529,176.059H342.727Z" transform="translate(-17.074 -250.737)"/>
      <path id="Path_355" data-name="Path 355" class="cls-62" d="M326.165,357.731,339.6,607.2h-5.2L320.869,357.731Z" transform="translate(-21.629 -261.143)"/>
      <path id="Path_356" data-name="Path 356" class="cls-23" d="M261.223,440.449c-42.877,13.589-148.865,31.4-148.865,31.4l.6,1.812h164.87Z" transform="translate(-99.604 -230.21)"/>
      <path id="Path_357" data-name="Path 357" class="cls-67" d="M271.054,452.685l6.621,16.4H112.806l-.032-.1Z" transform="translate(-99.448 -225.634)"/>
      <path id="Path_358" data-name="Path 358" class="cls-20" d="M229.536,443.469c33.692-19.8,36.539-24.488,42.493-36.821s10.935-37.822-1.851-38.626-35.823,42.08-45.826,41.238S210.92,454.408,229.536,443.469Z" transform="translate(-60.77 -257.299)"/>
      <path id="Path_359" data-name="Path 359" class="cls-68" d="M221.5,408.6c2.054,4,10.011,8.124,14.524,3.649,18.889-18.73,21.314-35.918,30.994-41.014,1.07-.563,9.108.768,9.607-.5,3.826,8.032-.109,24.818-4.6,34.122-5.953,12.334-8.8,17.025-42.493,36.822C212.829,451.5,213.882,415.493,221.5,408.6Z" transform="translate(-60.769 -256.278)"/>
      <path id="Path_360" data-name="Path 360" class="cls-20" d="M257.25,382.542c7.4-13.439,17.175-18.712,17.175-18.712s26.572-8.3,35.33,14.041-21.137,91.493-26.27,104.479-10.871,17.21-39.859,15.1l-24.459-26.572C246.645,448.831,252.4,391.346,257.25,382.542Z" transform="translate(-59.661 -259.427)"/>
      <g id="Group_213" data-name="Group 213" transform="translate(159.506 109.234)">
        <path id="Path_361" data-name="Path 361" class="cls-68" d="M243.394,430.1c-2,14.968,14.939,30.261,21.244,29.774,10.085-.78,23.448-38.314,34.392-69.887a79.173,79.173,0,0,0,4.614-23.051,24.483,24.483,0,0,1,6.111,9.21c8.756,22.345-21.137,91.493-26.27,104.479s-10.871,17.21-39.859,15.1l-24.459-26.572C230.4,460.139,238,445.207,243.394,430.1Z" transform="translate(-219.167 -366.935)"/>
      </g>
      <path id="Path_362" data-name="Path 362" class="cls-69" d="M264.1,393.771l-46.2-4.529-46.2,7.247,48.282,2.733,44.411-3.736Z" transform="translate(-77.413 -249.359)"/>
      <path id="Path_363" data-name="Path 363" class="cls-70" d="M200.285,390.327l6.919-1.085,46.2,4.529.293,1.714-6.952.585Z" transform="translate(-66.722 -249.359)"/>
      <path id="Path_364" data-name="Path 364" class="cls-20" d="M210.229,336.277l11.776,72.772-46.2,7.247-15.1-64.921Z" transform="translate(-81.523 -269.166)"/>
      <path id="Path_365" data-name="Path 365" class="cls-71" d="M210.229,336.277,175.805,416.3l-15.1-64.921Z" transform="translate(-81.523 -269.166)"/>
      <path id="Path_366" data-name="Path 366" class="cls-69" d="M193.931,337.458l3.874-1.181,11.776,72.772-4.653.73Z" transform="translate(-69.098 -269.166)"/>
      <path id="Path_367" data-name="Path 367" class="cls-20" d="M264.344,445.919c28.966-26.233,30.832-29,34.153-42.285s3.02-39.255-9.662-37.443-26.271,46.5-36.235,47.709S248.34,460.413,264.344,445.919Z" transform="translate(-49.007 -258.013)"/>
      <path id="Path_368" data-name="Path 368" class="cls-68" d="M252.6,410.086c6.322-.767,14.1-19.034,22.184-32.751,4.658-7.9-11.032,32.053-21,33.261-7.823.948-5.984,29.065,2.911,34.1C246.792,441.614,244.438,411.075,252.6,410.086Z" transform="translate(-49.006 -254.199)"/>
      <path id="Path_369" data-name="Path 369" class="cls-68" d="M264.2,422.677c28.966-26.233,30.8-31.4,34.122-44.691.32-1.281.6-2.681.85-4.16,1.885,8.27,1.162,19.545-.681,26.919-3.321,13.286-5.155,18.456-34.121,44.689-13.705,12.412-19.872-20.774-15.1-31.326C251.79,423,256.932,429.26,264.2,422.677Z" transform="translate(-49.002 -255.124)"/>
      <path id="Path_370" data-name="Path 370" class="cls-18" d="M236.307,400.9c-17.664-6.818-54.223-5.669-54.223-5.669l4.586,6.368s42.369,35.55,52.573,31.671C249.864,429.231,243.481,403.664,236.307,400.9Z" transform="translate(-73.529 -247.148)"/>
      <path id="Path_371" data-name="Path 371" class="cls-19" d="M271.14,408.044c-9.587-16.408-31.056-31.13-31.056-31.13l-9.71,6.672s22.353,59.685,32.384,61.887S274.948,414.562,271.14,408.044Z" transform="translate(-55.47 -253.969)"/>
      <path id="Path_372" data-name="Path 372" class="cls-18" d="M262.93,423.446c4.809,1.055,7.8-6.006,9.2-14.358,2.275,10.211-.389,36.539-9.373,34.569-10.031-2.2-32.384-61.887-32.384-61.887S256.269,421.986,262.93,423.446Z" transform="translate(-55.47 -252.153)"/>
      <g id="Group_214" data-name="Group 214" transform="translate(169.837)">
        <path id="Path_373" data-name="Path 373" class="cls-72" d="M227.336,303.421s-.162.9-.338,2.389A8.439,8.439,0,0,1,227.336,303.421Z" transform="translate(-226.57 -281.453)"/>
        <path id="Path_374" data-name="Path 374" class="cls-53" d="M227.115,311.79a9.528,9.528,0,0,0,1.017,4.4c1.812,3.625,11.549,4.983,6.794-10.869s8.832-17.892,8.832-17.892-8.605,7.474,1.359,11.55,5.209-8.832,15.4-10.417,13.362,13.815,13.362,13.815,4.077-9.512,18.344-4.077,4.982,16.758,4.982,16.758,13.362,2.266,14.267,19.931-8.832,11.1-8.832,11.1c1.586,10.871-7.7,15.853-7.7,15.853s-2.491,4.53-4.077,16.079l-40.539-37.141C224.706,348.007,226.12,320.248,227.115,311.79Z" transform="translate(-226.686 -287.432)"/>
        <path id="Path_375" data-name="Path 375" class="cls-54" d="M255.637,332.7c18.041-8.491,34.827-18.951,31.313-36.784-.109-.55-.275-1.073-.411-1.609a26.119,26.119,0,0,1,5.225,1.426c14.267,5.435,4.982,16.758,4.982,16.758s13.362,2.266,14.267,19.929-8.832,11.1-8.832,11.1c1.586,10.871-7.7,15.853-7.7,15.853s-2.491,4.53-4.077,16.079l-40.539-37.141c-13.433,3.737-19.428-2.121-21.953-9.755C233.346,336.264,238.314,340.85,255.637,332.7Z" transform="translate(-226.228 -284.861)"/>
      </g>
      <path id="Path_376" data-name="Path 376" class="cls-19" d="M275.75,337.376l9.059,36.914c-9.225,1.32-17.5,6.276-24.911,14.494l-4.3-39.632Z" transform="translate(-46.039 -268.755)"/>
      <path id="Path_377" data-name="Path 377" class="cls-23" d="M208.959,398.689l10.869-4.832c23.554,6.341,61.6,83.342,61.6,83.342s-9.663,13.587-20.534,13.587H233.417l-14.192-66.129-29.29,63.713-2.415-.905S203.222,411.975,208.959,398.689Z" transform="translate(-71.496 -247.633)"/>
      <path id="Path_378" data-name="Path 378" class="cls-67" d="M220.289,400.461s14.688,9.181,26.945,17.109c17.756,24.527,33.885,57.158,33.885,57.158s-9.663,13.588-20.534,13.588H233.107l-14.192-66.129L189.625,485.9l-1.275-.478Z" transform="translate(-71.185 -245.164)"/>
      <g id="Group_217" data-name="Group 217" transform="translate(23.323 242.336)">
        <path id="Path_379" data-name="Path 379" class="cls-73" d="M343.843,465.418H225.273c-20.982,0-27.013,44.645-6.03,44.645H337.812C327.1,504.054,328.581,472.5,343.843,465.418Z" transform="translate(-87.833 -463.208)"/>
        <path id="Path_380" data-name="Path 380" class="cls-12" d="M259.253,463.817H139.291c-23.83-.716-26.458,48.333-2.628,49.05H256.624C236.194,512.252,238.822,463.2,259.253,463.817Z" transform="translate(-120.05 -463.809)"/>
        <g id="Group_215" data-name="Group 215" transform="translate(19.27 0.009)">
          <path id="Path_381" data-name="Path 381" class="cls-12" d="M371.328,463.816h-234.8l-.985,4.648h234.8a3.237,3.237,0,0,0,3.127-2.323h0A1.954,1.954,0,0,0,371.328,463.816Z" transform="translate(-133.526 -463.816)"/>
          <path id="Path_382" data-name="Path 382" class="cls-12" d="M369.516,496.576H135.129l-1.054,4.037H368.462a3.273,3.273,0,0,0,3.161-2.018h0C371.914,497.48,370.971,496.576,369.516,496.576Z" transform="translate(-134.075 -451.565)"/>
        </g>
        <g id="Group_216" data-name="Group 216" transform="translate(131.215 0.008)">
          <path id="Path_383" data-name="Path 383" class="cls-2" d="M342.136,463.815H216.86l-.525,4.648H341.611c.776,0,1.522-1.04,1.668-2.325h0C343.424,464.855,342.912,463.815,342.136,463.815Z" transform="translate(-215.258 -463.815)"/>
          <path id="Path_384" data-name="Path 384" class="cls-2" d="M341.169,496.576H216.113l-.562,4.037H340.608c.776,0,1.531-.9,1.686-2.018h0C342.449,497.48,341.946,496.576,341.169,496.576Z" transform="translate(-215.551 -451.564)"/>
        </g>
        <path id="Path_385" data-name="Path 385" class="cls-2" d="M263.209,466.48H143.247c-23.831-.61-26.46,41.162-2.628,41.774H260.579C231.56,506.375,234.188,464.6,263.209,466.48Z" transform="translate(-118.571 -462.834)"/>
        <path id="Path_386" data-name="Path 386" class="cls-5" d="M256.492,467.587l-105.956.522c-21.323-.572-23.676,38.458-2.352,39.029H255.525C237.244,506.649,238.211,467.1,256.492,467.587Z" transform="translate(-115.088 -462.398)"/>
        <path id="Path_387" data-name="Path 387" class="cls-20" d="M238.716,471.423h-84.3c-16.746-.431-18.594,29.1-1.847,29.531h84.3C222.51,500.584,224.358,471.054,238.716,471.423Z" transform="translate(-112.256 -460.964)"/>
      </g>
      <g id="Group_219" data-name="Group 219" transform="translate(5.809 290.593)">
        <path id="Path_388" data-name="Path 388" class="cls-30" d="M284.572,498.932H115.24c-10.494,0-10.628,55.459-.135,55.459H284.437C270.868,554.391,271,498.932,284.572,498.932Z" transform="translate(-107.303 -498.932)"/>
        <path id="Path_389" data-name="Path 389" class="cls-5" d="M362.36,503.681H240.892c-21.5,0-21.6,42.41-.1,42.41H362.257C350.465,540.382,347.688,510.409,362.36,503.681Z" transform="translate(-63.393 -497.156)"/>
        <path id="Path_390" data-name="Path 390" class="cls-20" d="M260.612,535.359c-16.624,0-16.545-25.539.08-25.539h85.135c-3.3,7.594-2.789,18.05.489,25.539Z" transform="translate(-54.619 -494.86)"/>
        <path id="Path_391" data-name="Path 391" class="cls-74" d="M362.139,498.932H222.109l-.025,9.787H362.115c1.8,0,3.262-2.191,3.269-4.894h0C365.391,501.123,363.937,498.932,362.139,498.932Z" transform="translate(-64.379 -498.932)"/>
        <path id="Path_392" data-name="Path 392" class="cls-74" d="M362.059,532.173H222.027L222,541.96H362.035c1.8,0,3.262-2.191,3.269-4.894h0C365.309,534.364,363.857,532.173,362.059,532.173Z" transform="translate(-64.409 -486.501)"/>
        <path id="Path_393" data-name="Path 393" class="cls-74" d="M244.2,554.391H220.868c-8.039-10.465-7.955-44.993.135-55.459h23.337C230.77,498.932,230.635,554.391,244.2,554.391Z" transform="translate(-67.07 -498.932)"/>
        <g id="Group_218" data-name="Group 218" class="cls-47" transform="translate(14.974 5.111)">
          <path id="Path_394" data-name="Path 394" class="cls-5" d="M118.2,525.476c0-10.529,1.72-22.824,6.572-22.824H245.5v2.024c-3.642,0-6.39,8.922-6.39,20.755,0,11.65,2.707,20.434,6.3,20.434v2.024H124.678C119.9,547.888,118.2,535.817,118.2,525.476Zm119.085-.045c0-8.46,1.414-16.975,4.49-20.755h-117c-2.616,0-4.746,9.331-4.746,20.8,0,12.763,2.365,20.388,4.651,20.388H241.7C238.678,542.125,237.286,533.749,237.286,525.431Z" transform="translate(-118.201 -502.652)"/>
        </g>
      </g>
      <path id="Path_395" data-name="Path 395" class="cls-75" d="M173.154,465.412h23.1s3.227-3.736-.849-5.775S173.154,465.412,173.154,465.412Z" transform="translate(-76.868 -223.161)"/>
      <path id="Path_396" data-name="Path 396" class="cls-75" d="M103.075,451.052l10.854,20.387s4.814,1.092,4.7-3.462S103.075,451.052,103.075,451.052Z" transform="translate(-103.075 -226.244)"/>
      <path id="Path_397" data-name="Path 397" class="cls-9" d="M261.934,405.371c-8.821-1.921-11.8-11.169-11.919-22.742a18.607,18.607,0,0,1,4.365-2.564,46.263,46.263,0,0,1,6.08-5.319l-2.78-25.594,20.156-11.776,9.059,36.914c-.059.008-.115.025-.174.034a22.046,22.046,0,0,1,4.36,2.771c2.722.741,4.66,3.105,5.982,6.374C283.189,386.209,274.594,408.128,261.934,405.371Z" transform="translate(-48.125 -268.755)"/>
      <path id="Path_398" data-name="Path 398" class="cls-19" d="M277.172,317.754c6.775,27.1,2.491,52.994,2.491,52.994S261.319,381.843,250,382.07c0,0-10.417-43.255-6.341-60.467S275.813,312.318,277.172,317.754Z" transform="translate(-50.858 -278.574)"/>
      <path id="Path_399" data-name="Path 399" class="cls-54" d="M266.436,353.5c-2.046-24.223-3.567-39.931,3.84-36.336s4.867,30.848,4.867,30.848Z" transform="translate(-42.613 -276.503)"/>
      <path id="Path_400" data-name="Path 400" class="cls-76" d="M244.355,335.3c-.2-1.678.279-3.112,1.065-3.205s1.584,1.191,1.782,2.869-.28,3.111-1.066,3.2S244.552,336.974,244.355,335.3Z" transform="translate(-50.258 -270.733)"/>
      <path id="Path_401" data-name="Path 401" class="cls-76" d="M253.486,334c-.2-1.678.28-3.112,1.066-3.205s1.583,1.191,1.781,2.869-.28,3.112-1.066,3.2S253.684,335.676,253.486,334Z" transform="translate(-46.844 -271.218)"/>
      <path id="Path_402" data-name="Path 402" class="cls-20" d="M237.408,337.081l3.43,12.406,27.286-2.822.6-11.142,19.98-2.9,4.772,5.983,4.026-3.567-6.263-4.55Z" transform="translate(-52.84 -271.329)"/>
      <path id="Path_403" data-name="Path 403" class="cls-19" d="M246.9,335.567l-8.237,1.1,2.632,9.256,6.029-.849Z" transform="translate(-52.369 -269.431)"/>
      <path id="Path_404" data-name="Path 404" class="cls-19" d="M246.9,335.428l-8.237,1.1,2.632,9.256,6.029-.849Z" transform="translate(-52.369 -269.483)"/>
      <path id="Path_405" data-name="Path 405" class="cls-77" d="M247.019,344.775l-2.087.294L238.84,336.3l2.584-.346Z" transform="translate(-52.304 -269.286)"/>
      <path id="Path_406" data-name="Path 406" class="cls-19" d="M269.807,335.053c2.366-6.462,11.4-5.047,9.807-.242s-8.311,13.639-10.067,12.22S269.16,336.823,269.807,335.053Z" transform="translate(-41.143 -271.253)"/>
      <path id="Path_407" data-name="Path 407" class="cls-19" d="M246.932,336.556c-.268-.168-4.244,16.5-4.482,17.949s9.409-1.452,9.409-1.452S247.675,337.018,246.932,336.556Z" transform="translate(-50.956 -269.062)"/>
      <path id="Path_408" data-name="Path 408" class="cls-33" d="M270.97,335.8c1.355-3.7,6.525-2.888,5.613-.137s-4.757,7.805-5.761,6.993S270.6,336.811,270.97,335.8Z" transform="translate(-40.529 -270.277)"/>
      <path id="Path_409" data-name="Path 409" class="cls-19" d="M270.671,337.955c.862-2.352,4.149-1.837,3.57-.088s-3.025,4.964-3.664,4.446S270.435,338.6,270.671,337.955Z" transform="translate(-40.553 -269.132)"/>
      <path id="Path_410" data-name="Path 410" class="cls-19" d="M246.762,335.829l2.8,10.02,12.992-1.7.764-10.19Z" transform="translate(-49.342 -270.032)"/>
      <path id="Path_411" data-name="Path 411" class="cls-77" d="M247.966,335.355l5.545-.626,8.341,9.167-5.464.714Z" transform="translate(-48.892 -269.745)"/>
      <path id="Path_412" data-name="Path 412" class="cls-18" d="M246.932,336.556a5.757,5.757,0,0,1,.736,1.712c-1.26,4.8-3.431,13.985-3.6,15.048s4.84-.181,7.616-.941c.113.43.179.679.179.679s-9.645,2.9-9.409,1.452S246.664,336.389,246.932,336.556Z" transform="translate(-50.956 -269.062)"/>
      <path id="Path_413" data-name="Path 413" class="cls-76" d="M243.508,339c-.87.084-1.727-1.113-2.179-2.851l3.778-.507C245.021,337.509,244.4,338.918,243.508,339Z" transform="translate(-51.373 -269.402)"/>
      <path id="Path_414" data-name="Path 414" class="cls-76" d="M254.6,338.628c-1.032.076-2.012-1.57-2.349-3.8l4.107-.464C256.391,336.693,255.659,338.549,254.6,338.628Z" transform="translate(-47.288 -269.882)"/>
      <path id="Path_415" data-name="Path 415" class="cls-53" d="M266.781,331.36a85.9,85.9,0,0,1-17.441-1.248l-.694-7.318s15.9,2.749,17.286,4.107S266.781,331.36,266.781,331.36Z" transform="translate(-48.637 -274.208)"/>
      <path id="Path_416" data-name="Path 416" class="cls-53" d="M240.12,333.22a30.326,30.326,0,0,0,9.873-2.911L249.333,323s-8.767,4.248-9.37,5.724S240.12,333.22,240.12,333.22Z" transform="translate(-51.972 -274.13)"/>
      <path id="Path_417" data-name="Path 417" class="cls-78" d="M248.137,351.767l14.523-3.887s.624,8.892-6.638,10.3S248.137,351.767,248.137,351.767Z" transform="translate(-48.827 -264.827)"/>
      <path id="Path_418" data-name="Path 418" class="cls-79" d="M249.622,354.186a8.386,8.386,0,0,1-.734-2.612l12.46-3.336a12.2,12.2,0,0,1-.238,2.873Z" transform="translate(-48.547 -264.693)"/>
      <path id="Path_419" data-name="Path 419" class="cls-69" d="M180.754,372.737c1.818-.3,2.859-3.16,2.325-6.386a8.653,8.653,0,0,0-1.667-3.993c1.279.742,2.4,2.623,2.786,4.972.533,3.226-.508,6.085-2.326,6.385a2.878,2.878,0,0,1-2.59-1.3A2.2,2.2,0,0,0,180.754,372.737Z" transform="translate(-74.577 -259.413)"/>
      <path id="Path_420" data-name="Path 420" class="cls-70" d="M180.046,359.913c1.755-.29,3.568,1.342,4.75,3.932-1.118-1.664-2.525-2.631-3.9-2.4-2.472.409-3.864,4.437-3.109,9a14.2,14.2,0,0,0,1.09,3.583,13.041,13.041,0,0,1-1.939-5.111C176.182,364.348,177.574,360.321,180.046,359.913Z" transform="translate(-75.53 -260.339)"/>
      <path id="Path_421" data-name="Path 421" class="cls-18" d="M215.652,378.768c-.488,4.026.752,6.573,1.889,7.026s5.007-1.058,5.654-2.343S216.082,375.216,215.652,378.768Z" transform="translate(-61.017 -253.65)"/>
      <path id="Path_422" data-name="Path 422" class="cls-19" d="M216.54,376.79c.339,7.558,1.274,8.237,2.718,8.917s5.944-.256,6.453-1.444-.341-4.16-1.529-3.906a20.727,20.727,0,0,1-2.633.339Z" transform="translate(-60.644 -254.016)"/>
      <path id="Path_423" data-name="Path 423" class="cls-19" d="M219.672,375.719c2-3.057,17.481-2.929,25.721,3.057l-8.406,8.407c-2.747-4.458-9.948-4.077-14.443-3.695S217.674,378.776,219.672,375.719Z" transform="translate(-59.904 -255.153)"/>
      <path id="Path_424" data-name="Path 424" class="cls-19" d="M218.888,377.856c.341,7.558,1.275,8.237,2.718,8.917s5.944-.256,6.453-1.444-.339-4.16-1.528-3.906a20.455,20.455,0,0,1-2.633.339Z" transform="translate(-59.765 -253.617)"/>
      <path id="Path_425" data-name="Path 425" class="cls-19" d="M225.639,374.053c-5.2.974-8.909,2.933-10.639,4.831a22.737,22.737,0,0,0-3.947,7.844c-.073,1.1,2.906,2.472,3.542,1.019s2.628-5.8,3.168-5.982,5.837-2.428,6.088-2.392S225.639,374.053,225.639,374.053Z" transform="translate(-62.696 -255.039)"/>
      <path id="Path_426" data-name="Path 426" class="cls-18" d="M194.653,405.478c-11.591-4.967-17.831-2.8-20.634-10.827l17.577.68Z" transform="translate(-76.545 -247.336)"/>
      <path id="Path_427" data-name="Path 427" class="cls-18" d="M181.593,400.125c-3.906-2.208-4.84-5.35-4.84-7.388s-3.141-2.547-3.226-.595a10.6,10.6,0,0,0,1.528,5.606C175.9,399.021,181.593,400.125,181.593,400.125Z" transform="translate(-76.731 -248.733)"/>
      <path id="Path_428" data-name="Path 428" class="cls-18" d="M184.808,400.372c-3.906-2.208-4.84-5.349-4.84-7.388s-3.142-2.547-3.227-.594a10.6,10.6,0,0,0,1.529,5.6C179.118,399.268,184.808,400.372,184.808,400.372Z" transform="translate(-75.53 -248.641)"/>
      <path id="Path_429" data-name="Path 429" class="cls-18" d="M188.206,400.681c-3.906-2.208-4.84-5.349-4.84-7.388s-3.142-2.547-3.226-.594a10.59,10.59,0,0,0,1.528,5.6C182.517,399.577,188.206,400.681,188.206,400.681Z" transform="translate(-74.258 -248.525)"/>
    </g>
  </g>
</svg>
