<svg xmlns="http://www.w3.org/2000/svg" width="34.534" height="34.331" viewBox="0 0 34.534 34.331">
  <g id="teacher" transform="translate(0 -1.504)">
    <path id="Path_532" data-name="Path 532" d="M244.153,38.115V28.053a1.086,1.086,0,0,1,1.086-1.086h14.335a1.086,1.086,0,0,1,1.086,1.086V38.115a1.086,1.086,0,0,1-1.086,1.086H245.239A1.086,1.086,0,0,1,244.153,38.115Z" transform="translate(-227.685 -23.746)" fill="#46738c"/>
    <path id="Path_533" data-name="Path 533" d="M249.128,91.289a.539.539,0,0,1-.334-.963l4.422-3.487a.539.539,0,1,1,.668.847l-4.422,3.487A.538.538,0,0,1,249.128,91.289Z" transform="translate(-231.821 -79.471)" fill="#ff8c46"/>
    <circle id="Ellipse_53" data-name="Ellipse 53" cx="2.35" cy="2.35" r="2.35" transform="translate(6.303 1.504)" fill="#ffb69e"/>
    <path id="Path_534" data-name="Path 534" d="M133.533,237.935a1.368,1.368,0,0,1-1.368-1.368V225.637a1.368,1.368,0,1,1,2.735,0v10.931A1.367,1.367,0,0,1,133.533,237.935Z" transform="translate(-123.251 -207.74)" fill="#343e6b"/>
    <path id="Path_535" data-name="Path 535" d="M84.589,237.935a1.368,1.368,0,0,1-1.368-1.368V225.637a1.368,1.368,0,1,1,2.735,0v10.931A1.367,1.367,0,0,1,84.589,237.935Z" transform="translate(-77.608 -207.74)" fill="#414b82"/>
    <path id="Path_536" data-name="Path 536" d="M57.427,86.007a1.134,1.134,0,0,0-1.561-.365l-2.3,1.426v-2.12a2.7,2.7,0,0,0-2.694-2.67h-6.13a2.724,2.724,0,0,0-2.739,2.683v8.378a1.14,1.14,0,0,0,2.279,0V84.971a.459.459,0,0,1,.46-.414h.041v8.665h6.036V84.546h.053a.435.435,0,0,1,.436.413v4.146a1.134,1.134,0,0,0,1.732.958l4.018-2.495A1.134,1.134,0,0,0,57.427,86.007Z" transform="translate(-39.174 -75.326)" fill="#252d5c"/>
    <path id="Path_537" data-name="Path 537" d="M137.586,86.007a1.134,1.134,0,0,0-1.561-.365l-2.3,1.426v-2.12a2.7,2.7,0,0,0-2.694-2.67h-3.072V93.222h3.019V84.546h.053a.435.435,0,0,1,.436.413v4.146a1.134,1.134,0,0,0,1.732.958l4.018-2.495A1.134,1.134,0,0,0,137.586,86.007Z" transform="translate(-119.332 -75.326)" fill="#1b224a"/>
    <path id="Path_538" data-name="Path 538" d="M249.047,130.157a1.134,1.134,0,0,0-1.561-.365l1.2,1.926A1.134,1.134,0,0,0,249.047,130.157Z" transform="translate(-230.794 -119.475)" fill="#ffb69e"/>
    <g id="Group_267" data-name="Group 267" transform="translate(2.833 10.309)">
      <rect id="Rectangle_217" data-name="Rectangle 217" width="2.268" height="0.483" transform="translate(14.642 2.186) rotate(-121.506)" fill="#fff"/>
      <path id="Path_539" data-name="Path 539" d="M42,237.56v.588a1.14,1.14,0,1,0,2.279,0v-.588Z" transform="translate(-42.001 -230.444)" fill="#fff"/>
    </g>
    <path id="Path_540" data-name="Path 540" d="M42,245.84v.029a1.14,1.14,0,1,0,2.279,0v-.029Z" transform="translate(-39.168 -227.856)" fill="#ffb69e"/>
    <path id="Path_541" data-name="Path 541" d="M102.183,82.278l1.739,4.563,1.739-4.563Z" transform="translate(-95.291 -75.326)" fill="#fff"/>
    <path id="Path_542" data-name="Path 542" d="M117.486,83.833l-.386-.7.333-.605a.166.166,0,0,0-.145-.245h-1.116a.166.166,0,0,0-.145.245l.334.608-.385.7a.469.469,0,0,0-.049.318l.238,1.206.566,1.485.566-1.485.239-1.206A.47.47,0,0,0,117.486,83.833Z" transform="translate(-108.098 -75.328)" fill="#ff3c3c"/>
    <rect id="Rectangle_218" data-name="Rectangle 218" width="1.505" height="0.464" transform="translate(9.473 10.458)" fill="#252d5c"/>
    <g id="Group_268" data-name="Group 268" transform="translate(23.333 21.24)">
      <circle id="Ellipse_54" data-name="Ellipse 54" cx="2.293" cy="2.293" r="2.293" transform="translate(3.317)" fill="#80391b"/>
      <path id="Path_543" data-name="Path 543" d="M354.512,372.929h-5.939a2.635,2.635,0,0,0-2.631,2.6V378.1h2.213v-2.554a.418.418,0,0,1,.418-.4h.022V378.1h5.859v-2.958h.058a.418.418,0,0,1,.418.4V378.1h2.212v-2.565A2.635,2.635,0,0,0,354.512,372.929Z" transform="translate(-345.942 -367.613)" fill="#80391b"/>
    </g>
    <path id="Path_544" data-name="Path 544" d="M354.512,372.929H352.7a1.779,1.779,0,0,1-2.277,0h-1.848a2.635,2.635,0,0,0-2.631,2.6v1.61h2.212v-1.6a.418.418,0,0,1,.418-.4h.022V378.1h5.859v-2.958h.058a.418.418,0,0,1,.418.4v1.6h2.213v-1.61A2.635,2.635,0,0,0,354.512,372.929Z" transform="translate(-322.61 -346.373)" fill="#55c7a6"/>
    <g id="Group_269" data-name="Group 269" transform="translate(11.668 21.24)">
      <circle id="Ellipse_55" data-name="Ellipse 55" cx="2.293" cy="2.293" r="2.293" transform="translate(3.317)" fill="#ffb69e"/>
      <path id="Path_545" data-name="Path 545" d="M181.555,372.929h-5.939a2.635,2.635,0,0,0-2.631,2.6V378.1H175.2v-2.554a.418.418,0,0,1,.418-.4h.022V378.1H181.5v-2.958h.058a.418.418,0,0,1,.418.4V378.1h2.213v-2.565A2.635,2.635,0,0,0,181.555,372.929Z" transform="translate(-172.985 -367.613)" fill="#ffb69e"/>
    </g>
    <path id="Path_546" data-name="Path 546" d="M181.555,372.929h-1.9a1.779,1.779,0,0,1-2.277,0h-1.758a2.635,2.635,0,0,0-2.631,2.6v1.61H175.2v-1.6a.418.418,0,0,1,.418-.4h.022V378.1H181.5v-2.958h.058a.418.418,0,0,1,.418.4v1.6h2.213v-1.61A2.635,2.635,0,0,0,181.555,372.929Z" transform="translate(-161.318 -346.373)" fill="#252d5c"/>
    <g id="Group_270" data-name="Group 270" transform="translate(0 21.203)">
      <circle id="Ellipse_56" data-name="Ellipse 56" cx="2.293" cy="2.293" r="2.293" transform="translate(3.316 0)" fill="#ffb69e"/>
      <path id="Path_547" data-name="Path 547" d="M8.57,372.387H2.631A2.635,2.635,0,0,0,0,374.992v2.565H2.213V375a.418.418,0,0,1,.418-.4h.022v2.958H8.512V374.6H8.57a.418.418,0,0,1,.418.4v2.554H11.2v-2.565A2.635,2.635,0,0,0,8.57,372.387Z" transform="translate(0 -367.071)" fill="#ffb69e"/>
    </g>
    <path id="Path_548" data-name="Path 548" d="M8.57,372.387h-1.9a1.78,1.78,0,0,1-2.277,0H2.631A2.635,2.635,0,0,0,0,374.992v1.61H2.213V375a.418.418,0,0,1,.418-.4h.022v2.958H8.512V374.6H8.57a.418.418,0,0,1,.418.4v1.6H11.2v-1.61A2.635,2.635,0,0,0,8.57,372.387Z" transform="translate(0 -345.868)" fill="#78beff"/>
    <g id="Group_271" data-name="Group 271" transform="translate(18.15 25.348)">
      <circle id="Ellipse_57" data-name="Ellipse 57" cx="2.293" cy="2.293" r="2.293" transform="translate(3.317)" fill="#ffb69e"/>
      <path id="Path_549" data-name="Path 549" d="M277.669,433.843H271.73a2.635,2.635,0,0,0-2.631,2.6v2.565h2.212v-2.554a.418.418,0,0,1,.418-.4h.022v2.958h5.859v-2.958h.058a.418.418,0,0,1,.418.4v2.554H280.3v-2.565A2.635,2.635,0,0,0,277.669,433.843Z" transform="translate(-269.099 -428.527)" fill="#ffb69e"/>
    </g>
    <path id="Path_550" data-name="Path 550" d="M277.67,433.843h-1.813a1.78,1.78,0,0,1-2.277,0h-1.848a2.635,2.635,0,0,0-2.631,2.6v1.61h2.212v-1.6a.417.417,0,0,1,.418-.4h.022v2.958h5.859v-2.958h.058a.418.418,0,0,1,.418.4v1.6H280.3v-1.61A2.635,2.635,0,0,0,277.67,433.843Z" transform="translate(-250.95 -403.178)" fill="#78beff"/>
    <g id="Group_272" data-name="Group 272" transform="translate(6.485 25.348)">
      <circle id="Ellipse_58" data-name="Ellipse 58" cx="2.293" cy="2.293" r="2.293" transform="translate(3.317)" fill="#ba6746"/>
      <path id="Path_551" data-name="Path 551" d="M104.712,433.843H98.773a2.635,2.635,0,0,0-2.631,2.6v2.565h2.213v-2.554a.418.418,0,0,1,.418-.4h.022v2.958h5.859v-2.958h.058a.418.418,0,0,1,.418.4v2.554h2.212v-2.565A2.635,2.635,0,0,0,104.712,433.843Z" transform="translate(-96.142 -428.527)" fill="#ba6746"/>
    </g>
    <path id="Path_552" data-name="Path 552" d="M104.712,433.843h-1.9a1.78,1.78,0,0,1-2.277,0H98.773a2.635,2.635,0,0,0-2.631,2.6v1.61h2.213v-1.6a.417.417,0,0,1,.418-.4h.022v2.958h5.859v-2.958h.058a.418.418,0,0,1,.418.4v1.6h2.213v-1.61A2.635,2.635,0,0,0,104.712,433.843Z" transform="translate(-89.657 -403.178)" fill="#ff3c3c"/>
  </g>
</svg>
