<svg xmlns="http://www.w3.org/2000/svg" width="883.142" height="583.682" viewBox="0 0 883.142 583.682">
  <defs>
    <style>
      .cls-1, .cls-4 {
        fill: #070707;
      }

      .cls-1 {
        opacity: 0.8;
      }

      .cls-1, .cls-10, .cls-28, .cls-29, .cls-30, .cls-36, .cls-4, .cls-7 {
        mix-blend-mode: soft-light;
        isolation: isolate;
      }

      .cls-2 {
        fill: #dccecd;
      }

      .cls-3 {
        fill: #e9e5da;
      }

      .cls-35, .cls-4, .cls-7 {
        opacity: 0.5;
      }

      .cls-5 {
        fill: #441d1b;
      }

      .cls-6 {
        fill: #dcf7ff;
      }

      .cls-8 {
        fill: #eceaeb;
      }

      .cls-9 {
        fill: #dfdde3;
      }

      .cls-11 {
        fill: #fff3d4;
      }

      .cls-12 {
        fill: #ffc34a;
      }

      .cls-13 {
        fill: #f4b545;
      }

      .cls-14 {
        fill: #e2a037;
      }

      .cls-15 {
        fill: #2a2e34;
      }

      .cls-16 {
        fill: #edebeb;
      }

      .cls-17 {
        fill: #ff4f47;
      }

      .cls-18 {
        fill: #bce2f1;
      }

      .cls-19 {
        fill: #2c374a;
      }

      .cls-20 {
        fill: #25303f;
      }

      .cls-21 {
        fill: #222a35;
      }

      .cls-22 {
        fill: #ea8736;
      }

      .cls-23 {
        fill: #ccc9c0;
      }

      .cls-24 {
        fill: #f4b799;
      }

      .cls-25 {
        fill: #fff;
      }

      .cls-26 {
        fill: #5c2924;
      }

      .cls-27 {
        fill: #4f211f;
      }

      .cls-28 {
        opacity: 0.3;
      }

      .cls-29, .cls-36 {
        opacity: 0.6;
      }

      .cls-30 {
        fill: none;
        stroke: #000;
        stroke-linecap: round;
        stroke-linejoin: round;
        stroke-width: 1.161px;
      }

      .cls-31 {
        fill: #b22828;
      }

      .cls-32 {
        fill: #fff0e7;
      }

      .cls-33 {
        fill: #e82e2e;
      }

      .cls-34 {
        fill: #161818;
      }

      .cls-35 {
        fill: #6b2e2b;
      }

      .cls-37 {
        fill: #dbdbdb;
      }

      .cls-38 {
        fill: #d5d4e4;
      }

      .cls-39 {
        fill: #bfbfd1;
      }
    </style>
  </defs>
  <g id="Group_287" data-name="Group 287" transform="translate(-67.072 -71.923)">
    <ellipse id="Ellipse_51" data-name="Ellipse 51" class="cls-1" cx="283.534" cy="17.448" rx="283.534" ry="17.448" transform="translate(237.234 620.709)"/>
    <g id="Group_231" data-name="Group 231" transform="translate(257.646 199.738)">
      <g id="Group_230" data-name="Group 230" transform="translate(171.746 334.32)">
        <path id="Path_437" data-name="Path 437" class="cls-2" d="M455.043,493.5H340.437c3.582-22.155,8.2-44.319,10.1-66.483q.441-4.965.66-9.929a187.631,187.631,0,0,0-.282-22.892h93.655a198.608,198.608,0,0,0,.083,22.892c.189,3.3.45,6.612.764,9.929C447.48,448.961,451.931,471.125,455.043,493.5Z" transform="translate(-310.749 -394.191)"/>
        <path id="Rectangle_193" data-name="Rectangle 193" class="cls-3" d="M9.693,0h154.6a9.693,9.693,0,0,1,9.693,9.693V17.66a0,0,0,0,1,0,0H0a0,0,0,0,1,0,0V9.693A9.693,9.693,0,0,1,9.693,0Z" transform="translate(0 85.503)"/>
        <path id="Path_438" data-name="Path 438" class="cls-4" d="M442.179,420.128l-94.286-9c.294-3.311-.08,2.378.066-.932h93.456C441.6,413.5,441.865,416.811,442.179,420.128Z" transform="translate(-307.513 -387.307)"/>
      </g>
      <path id="Path_439" data-name="Path 439" class="cls-5" d="M717.447,177.74V501.869a16.672,16.672,0,0,1-16.672,16.673H216.653a16.674,16.674,0,0,1-16.685-16.673V177.74a16.676,16.676,0,0,1,16.685-16.686H700.775A16.675,16.675,0,0,1,717.447,177.74Z" transform="translate(-199.968 -161.054)"/>
      <path id="Path_440" data-name="Path 440" class="cls-3" d="M717.447,367.263v45.11a16.672,16.672,0,0,1-16.672,16.673H216.653a16.674,16.674,0,0,1-16.685-16.673v-45.11Z" transform="translate(-199.968 -71.558)"/>
      <rect id="Rectangle_194" data-name="Rectangle 194" class="cls-6" width="470.026" height="249.356" rx="6.373" transform="translate(23.725 25.383)"/>
      <path id="Path_441" data-name="Path 441" class="cls-4" d="M677.6,351.15H225.855a9.141,9.141,0,0,1-9.14-9.139v6.106a9.14,9.14,0,0,0,9.14,9.139H677.6a9.138,9.138,0,0,0,9.139-9.139v-6.106A9.139,9.139,0,0,1,677.6,351.15Z" transform="translate(-192.7 -82.517)"/>
      <path id="Path_442" data-name="Path 442" class="cls-4" d="M225.855,185.073H677.6a9.14,9.14,0,0,1,9.139,9.14v-6.107a9.138,9.138,0,0,0-9.139-9.139H225.855a9.14,9.14,0,0,0-9.14,9.139v6.107A9.141,9.141,0,0,1,225.855,185.073Z" transform="translate(-192.7 -153.28)"/>
      <circle id="Ellipse_52" data-name="Ellipse 52" class="cls-4" cx="20.356" cy="20.356" r="20.356" transform="translate(233.794 342.985) rotate(-80.741)"/>
      <rect id="Rectangle_195" data-name="Rectangle 195" class="cls-4" width="209.945" height="13.574" transform="translate(251.092 64.032)"/>
      <rect id="Rectangle_196" data-name="Rectangle 196" class="cls-4" width="169.448" height="13.574" transform="translate(251.393 91.784)"/>
      <rect id="Rectangle_197" data-name="Rectangle 197" class="cls-4" width="169.448" height="13.574" transform="translate(251.393 172.323)"/>
      <rect id="Rectangle_198" data-name="Rectangle 198" class="cls-4" width="193.467" height="13.574" transform="translate(251.393 119.535)"/>
      <rect id="Rectangle_199" data-name="Rectangle 199" class="cls-4" width="193.467" height="13.574" transform="translate(251.393 197.963)"/>
      <rect id="Rectangle_200" data-name="Rectangle 200" class="cls-4" width="213.715" height="13.574" transform="translate(251.393 145.476)"/>
    </g>
    <path id="Path_443" data-name="Path 443" class="cls-7" d="M602.829,177.74v64.484H477.872a13.822,13.822,0,0,1-13.812-13.812V161.054h122.1A16.675,16.675,0,0,1,602.829,177.74Z" transform="translate(172.296 38.684)"/>
    <path id="Path_444" data-name="Path 444" class="cls-7" d="M589.1,229.952v126.32H509.5a13.822,13.822,0,0,1-13.812-13.812v-98.7A13.822,13.822,0,0,1,509.5,229.952Z" transform="translate(186.024 68.586)"/>
    <path id="Path_445" data-name="Path 445" class="cls-7" d="M614.183,349.5v70.583a16.672,16.672,0,0,1-16.672,16.673H437.9V363.311A13.821,13.821,0,0,1,451.711,349.5Z" transform="translate(160.942 120.47)"/>
    <g id="Group_234" data-name="Group 234" transform="translate(607.577 415.447)">
      <path id="Path_446" data-name="Path 446" class="cls-8" d="M657.292,349.613v98.7a13.806,13.806,0,0,1-13.812,13.812H457.79a13.8,13.8,0,0,1-13.8-13.812v-98.7a13.8,13.8,0,0,1,13.8-13.8H643.48A13.8,13.8,0,0,1,657.292,349.613Z" transform="translate(-443.991 -300.917)"/>
      <g id="Group_232" data-name="Group 232" transform="translate(21.369 63.349)">
        <rect id="Rectangle_201" data-name="Rectangle 201" class="cls-9" width="118.648" height="6.979"/>
        <rect id="Rectangle_202" data-name="Rectangle 202" class="cls-9" width="118.648" height="6.979" transform="translate(0 18.03)"/>
        <rect id="Rectangle_203" data-name="Rectangle 203" class="cls-9" width="118.648" height="6.979" transform="translate(0 35.478)"/>
        <rect id="Rectangle_204" data-name="Rectangle 204" class="cls-9" width="78.659" height="6.979" transform="translate(0 52.926)"/>
      </g>
      <path id="Path_447" data-name="Path 447" class="cls-10" d="M610.288,385.237v37.412l-17.905,5.719-28.256-2.624-11.109-1.035a.782.782,0,0,1-.473-1.352l.1-.1,6.926-6.466,21.906-20.425.066-.066Z" transform="translate(-396.987 -279.467)"/>
      <g id="Group_233" data-name="Group 233" transform="translate(151.869)">
        <path id="Path_448" data-name="Path 448" class="cls-11" d="M581.823,396.632l-19.5,20.6-7.679,8.109a.789.789,0,0,1-1.358-.473l-.013-.143-.809-9.436L549.9,385.353a35.23,35.23,0,0,1,12.285-2.306A20.553,20.553,0,0,1,575,387.368c.469.363.909.743,1.318,1.123A21.844,21.844,0,0,1,581.823,396.632Z" transform="translate(-549.895 -280.418)"/>
        <path id="Path_449" data-name="Path 449" class="cls-12" d="M617.938,330.659l-36.115,97.034-5.945-7.382-1.08-1.342-12.79-4.325L549.9,416.415l30.611-99.669,15.247-5.267,15.892,7.129.528.238Z" transform="translate(-549.896 -311.479)"/>
        <path id="Path_450" data-name="Path 450" class="cls-13" d="M608.511,318.846l-27.968,74.916-9.212,24.666-.2.54-12.79-4.325.174-.536,33.573-102.63,15.892,7.129Z" transform="translate(-546.23 -311.479)"/>
        <path id="Path_451" data-name="Path 451" class="cls-14" d="M610.4,328.429l-36.115,97.034-5.945-7.382-1.08-1.342.2-.54,9.212-24.666,27.968-74.916Z" transform="translate(-542.359 -309.249)"/>
        <path id="Path_452" data-name="Path 452" class="cls-15" d="M561.545,407.572l-7.679,8.109a.789.789,0,0,1-1.358-.473l-.013-.143-.809-9.436a12.813,12.813,0,0,1,5.441-.05A11.728,11.728,0,0,1,561.545,407.572Z" transform="translate(-549.119 -270.755)"/>
        <path id="Path_453" data-name="Path 453" class="cls-7" d="M550.009,386.2l12.081-1.553,12.176,4.192,6.555,8.454,1-.827-7.022-8.719-12.793-4.325L549.9,385.19Z" transform="translate(-549.896 -280.254)"/>
        <path id="Path_454" data-name="Path 454" class="cls-7" d="M616.918,328.5,580.8,425.535l-19.5,20.6-7.679,8.109a.789.789,0,0,1-1.358-.473l-.013-.143a103.546,103.546,0,0,1,11.808-20.693c3.386-4.593,7.17-8.931,10.173-13.758.215-.341.426-.681.628-1.027.149-.254.293-.506.436-.759.248-.436.486-.869.714-1.314,3.924-7.576,5.337-16.148,7.18-24.476.027-.156.063-.308.1-.459,4.194-18.784,11.056-36.851,17.9-54.834,2.066-5.445,4.97-14.21,9.443-19.862l.529.238Z" transform="translate(-548.875 -309.321)"/>
      </g>
    </g>
    <g id="Group_238" data-name="Group 238" transform="translate(671.261 268.014)">
      <path id="Path_455" data-name="Path 455" class="cls-16" d="M701.7,237.681v98.7a13.8,13.8,0,0,1-13.812,13.8H502.2a13.8,13.8,0,0,1-13.8-13.8v-98.7a13.8,13.8,0,0,1,13.8-13.812H687.89A13.805,13.805,0,0,1,701.7,237.681Z" transform="translate(-488.401 -202.068)"/>
      <g id="Group_235" data-name="Group 235" transform="translate(17.009 52.295)">
        <rect id="Rectangle_205" data-name="Rectangle 205" class="cls-9" width="118.648" height="6.979"/>
        <rect id="Rectangle_206" data-name="Rectangle 206" class="cls-9" width="118.648" height="6.979" transform="translate(0 18.03)"/>
        <rect id="Rectangle_207" data-name="Rectangle 207" class="cls-9" width="118.648" height="6.979" transform="translate(0 35.478)"/>
        <rect id="Rectangle_208" data-name="Rectangle 208" class="cls-9" width="78.659" height="6.979" transform="translate(0 52.926)"/>
      </g>
      <g id="Group_236" data-name="Group 236" transform="translate(126.096 116.268)">
        <path id="Path_456" data-name="Path 456" class="cls-17" d="M637.252,298.564c-.879,3.751-6.047,5.8-10.731,6.152s-9.509-.327-14.047.67c-1.182.262-2.323.63-3.529.813h-.053c-5.036.734-9.771-1.98-14.809-2.689a74.857,74.857,0,0,0-7.661-.29,15.468,15.468,0,0,1-7.293-1.639c-2.085-1.206-3.4-3.489-2.518-5.431a6.709,6.709,0,0,1,3.109-2.793c4.552-2.388,9.353-1.9,14.363-2.558,5.431-.721,10.9.38,16.358.209,3.7-.118,7.332-.826,11-1.127.053,0,.092-.013.145-.013,3.647-.29,7.477-.145,10.691,1.285C635.534,292.6,637.933,295.6,637.252,298.564Z" transform="translate(-576.334 -289.745)"/>
        <path id="Path_457" data-name="Path 457" class="cls-7" d="M627.4,298.564c-.879,3.751-6.047,5.8-10.731,6.152s-9.509-.327-14.047.67c-1.182.262-2.323.63-3.529.813h-.053c.027-1.547,1.43-3.017,2.821-3.922a31.6,31.6,0,0,1,8.973-3.817,11.543,11.543,0,0,0,3.463-1.312,3.486,3.486,0,0,0,1.718-3.095c-.275-2.336-2.454-3.149-4.276-4.184,3.647-.29,7.477-.145,10.691,1.285C625.68,292.6,628.08,295.6,627.4,298.564Z" transform="translate(-566.48 -289.745)"/>
      </g>
      <path id="Path_458" data-name="Path 458" class="cls-10" d="M654.91,248.421v31.835L621.185,310.23a10.286,10.286,0,0,1-11.372,1.509l-3.529,3.135a6.084,6.084,0,0,1-8.552-.512,5.847,5.847,0,0,1-1.22-2.164,6.041,6.041,0,0,1,1.732-6.388l3.935-3.5a10.287,10.287,0,0,1,3.2-9.865Z" transform="translate(-441.609 -191.412)"/>
      <g id="Group_237" data-name="Group 237" transform="translate(154.616)">
        <path id="Path_459" data-name="Path 459" class="cls-18" d="M659.7,239.852l-39.66,72.736a10.28,10.28,0,0,1-10.187,5.266l-2.257,4.139a6.08,6.08,0,0,1-8.224,2.413,5.825,5.825,0,0,1-1.887-1.62,6.072,6.072,0,0,1-.531-6.6l2.527-4.635a10.244,10.244,0,0,1-.331-10.359l39.66-72.734a.68.68,0,0,1,.922-.272l19.689,10.736A.687.687,0,0,1,659.7,239.852Z" transform="translate(-596.222 -200.229)"/>
        <path id="Path_460" data-name="Path 460" class="cls-7" d="M659.319,239.852l-39.66,72.736a10.28,10.28,0,0,1-10.187,5.266l-2.257,4.139a6.08,6.08,0,0,1-8.224,2.413,5.825,5.825,0,0,1-1.887-1.62,4.265,4.265,0,0,1,.3-1.678c.74-1.86,2.608-2.97,4.315-4.027A66.031,66.031,0,0,0,620.462,299.7a129.957,129.957,0,0,0,7.283-11.659L642.6,262.3a106.713,106.713,0,0,0,5.528-10.455c1.15-2.614,2.042-5.765.564-8.191a9.743,9.743,0,0,0-3.5-2.978c-2.61-1.586-7.567-3.465-10.009-6.272l3.242-5.945a.68.68,0,0,1,.922-.272l19.689,10.736A.687.687,0,0,1,659.319,239.852Z" transform="translate(-595.84 -200.229)"/>
        <path id="Path_461" data-name="Path 461" class="cls-19" d="M654.073,210.11h0a11.935,11.935,0,0,1,4.749,16.144l-11.947,21.91a.433.433,0,0,1-.585.172l-20.138-10.98a.431.431,0,0,1-.172-.584l11.948-21.912A11.935,11.935,0,0,1,654.073,210.11Z" transform="translate(-583.329 -208.666)"/>
        <rect id="Rectangle_209" data-name="Rectangle 209" class="cls-20" width="38.077" height="11.601" rx="1.33" transform="translate(39.88 18.276) rotate(28.603)"/>
      </g>
    </g>
    <g id="Group_246" data-name="Group 246" transform="translate(631.122 124.013)">
      <rect id="Rectangle_210" data-name="Rectangle 210" class="cls-16" width="213.314" height="126.32" rx="9.632" transform="translate(0 20.108)"/>
      <g id="Group_239" data-name="Group 239" transform="translate(13.527 45.078)">
        <rect id="Rectangle_211" data-name="Rectangle 211" class="cls-9" width="118.648" height="6.979"/>
        <rect id="Rectangle_212" data-name="Rectangle 212" class="cls-9" width="118.648" height="6.979" transform="translate(0 18.03)"/>
        <rect id="Rectangle_213" data-name="Rectangle 213" class="cls-9" width="118.648" height="6.979" transform="translate(0 35.478)"/>
        <rect id="Rectangle_214" data-name="Rectangle 214" class="cls-9" width="78.659" height="6.979" transform="translate(0 52.926)"/>
      </g>
      <g id="Group_244" data-name="Group 244" transform="translate(20.288 87.025)">
        <g id="Group_243" data-name="Group 243">
          <g id="Group_240" data-name="Group 240" transform="translate(9.425 5.795)">
            <line id="Line_1" data-name="Line 1" class="cls-21" y1="36.06" x2="279.753" transform="translate(0.099 0.531)"/>
            <rect id="Rectangle_215" data-name="Rectangle 215" class="cls-21" width="282.069" height="1.312" transform="matrix(0.992, -0.127, 0.127, 0.992, 0, 35.821)"/>
          </g>
          <g id="Group_241" data-name="Group 241" transform="translate(287.894)">
            <path id="Path_462" data-name="Path 462" class="cls-21" d="M680.775,179.842a5.454,5.454,0,1,1,5.455-5.455A5.461,5.461,0,0,1,680.775,179.842Zm0-9.6a4.142,4.142,0,1,0,4.143,4.141A4.147,4.147,0,0,0,680.775,170.246Z" transform="translate(-675.32 -168.934)"/>
          </g>
          <g id="Group_242" data-name="Group 242" transform="translate(0 37.95)">
            <path id="Path_463" data-name="Path 463" class="cls-21" d="M480.012,206.306a5.454,5.454,0,1,1,5.454-5.454A5.46,5.46,0,0,1,480.012,206.306Zm0-9.6a4.142,4.142,0,1,0,4.141,4.143A4.146,4.146,0,0,0,480.012,196.71Z" transform="translate(-474.558 -195.398)"/>
          </g>
        </g>
        <rect id="Rectangle_216" data-name="Rectangle 216" class="cls-21" width="11.123" height="11.123" transform="translate(130.208 21.885)"/>
      </g>
      <path id="Path_464" data-name="Path 464" class="cls-10" d="M628.507,188.788l-.184.092-57.059,28.084-2.65-1.784,4.407-5.5,18.745-23.4a10.52,10.52,0,0,0,2.518.971,11.136,11.136,0,1,0-7.778-13.328,11.308,11.308,0,0,0,1.744,9.235L567.59,214.5l-2.571-1.719,12.122-62.767s19.151-1.509,28.8-13.917l-.13-.026-.092-.027.564-.956.092.026V135.1l7.49-12.829h.642a13.821,13.821,0,0,1,13.812,13.812v42.8c-.523,3.738-.63,7.1,0,9.312C628.376,188.408,628.442,188.6,628.507,188.788Z" transform="translate(-415.01 -102.162)"/>
      <g id="Group_245" data-name="Group 245" transform="translate(150.881)">
        <path id="Path_465" data-name="Path 465" class="cls-19" d="M625.875,180.434,572.32,215.1l-2.849-1.457,3.736-5.97L589.1,182.232a10.6,10.6,0,0,0,2.617.675,11.14,11.14,0,1,0-9.284-12.332,11.3,11.3,0,0,0,2.808,8.964L568.38,213.082l-2.753-1.413,4.712-63.755s18.849-3.727,26.984-17.171c.2-.326.394-.661.584-1.01l.086-.158,18.12,1.828,1.088.11,10.689,13.639s-.175.789-.439,2.14c-.069.384-.155.813-.245,1.286-.009.066-.027.13-.036.2C625.715,156.542,622.809,174.543,625.875,180.434Z" transform="translate(-565.627 -98.99)"/>
        <path id="Path_466" data-name="Path 466" class="cls-12" d="M634.913,125.557l-17.287,32.5-.008-.023-.05-.051-11.184-16.049-.089-.011L587.77,140l-.133-.016.45-1.025,13.393-30.712,19.1,5,.84.214Z" transform="translate(-556.074 -108.248)"/>
        <path id="Path_467" data-name="Path 467" class="cls-22" d="M606.648,131.61l-18.627-1.951-.444,1.017,18.742,1.953,11.245,16.13.614-1.154Z" transform="translate(-556.1 -98.955)"/>
        <path id="Path_468" data-name="Path 468" class="cls-7" d="M624.712,188.179l-53.556,34.664-2.849-1.457,3.736-5.97c7.989-8.223,20.035-12.434,27.88-21.057,8.753-9.614,11.094-23.308,12.51-36.239.634-5.905,1.193-11.832,2.281-17.671a.02.02,0,0,1,0-.033c.049-.32.11-.64.171-.958a.184.184,0,0,1,.022-.076c.009-.077.029-.153.039-.232,2.055-10.3,6.333-19.926,13.956-27.359.024-.02.039-.04.063-.06l.84.214,13.494,12.1-17.287,32.5-.009-.023C624.552,164.287,621.646,182.288,624.712,188.179Z" transform="translate(-564.464 -106.736)"/>
      </g>
    </g>
    <path id="Path_469" data-name="Path 469" class="cls-7" d="M569.462,330.368c-.063.021-.138.049-.211.076l-.017-.062c.122-.04.231-.076.369-.123,1.7-.585,1.911-2.968,1.487-3.935a2.422,2.422,0,0,0-3.056-1.471c-.106.037-.214.079-.321.118l-.016-.052c.181-.06.351-.115.548-.182,2.53-.87,2.6-3.12,1.877-4.709a3.183,3.183,0,0,0-3.736-1.628c-.123.042-.288.1-.473.172l-.032-.108c2.078-1.027,2.844-2.726,2.171-4.44a3.2,3.2,0,0,0-3.812-2.082L587.025,185.7c.092-.508-.389-.645-.51-.145l-31.03,126.4c-3.231-.338-6.931-.334-8.957.607-2.614,1.213-6.344,7.97-8.511,11.882-1.05.264-2.069.523-3.1.784l-1.156-2.481-79.579,21.793-16.434-19.928L402.778,281.44a20.38,20.38,0,0,0-10.566-6.856,56.69,56.69,0,0,0-11.812-4.42,158.665,158.665,0,0,0-23.343-4.054l.063-11.409,11.783-.245,21.232-.439s19.9-117.766-41.981-132.228c-7.83-1.866-17.017-2.026-27.7-.092,0,0-35.809-.462-44.95,58.744-2.9,18.722-3.132,43.386,1.289,75.925l23.535-.483,23.148-.482-.047,8.418c-1.606-.06-3.234-.119-4.9-.172a145.332,145.332,0,0,0-20.151,1.728c-11.081,1.714-24.1,5.17-31.712,12.116A19.908,19.908,0,0,0,258.4,287c-.371.9-6.444,21.608-16.3,53.643,0,0-22.425,74.664-25.168,113.179l3.265.754c-.172,1.408-.3,2.53-.4,3.327-2.012,1.827-5.76,4.949-6.548,8.518-1.05,4.761-1.757,12.842-2.162,16.211s1.061,4.412,2.148,4.771,2.395.039,2.607-1.22c.011-.066.023-.143.034-.221l.063.014c-.023.126-.043.239-.067.381-.3,1.771,1.692,3.1,2.743,3.188a2.422,2.422,0,0,0,2.755-1.979c.017-.112.033-.227.05-.34l.053.013c-.034.186-.069.363-.1.568-.445,2.637,1.5,3.779,3.238,3.9a3.183,3.183,0,0,0,3.216-2.5c.023-.129.047-.3.075-.5l.11.026c-.092,2.316,1.035,3.8,2.861,4.028a3.232,3.232,0,0,0,3.774-2.921c.079-.622.336-1.742.663-3.206l.013.221c2.079-1.926,6.885-8.558,7.126-12.3.192-3-4.335-9.955-6.668-13.632l-.033-.057c.311-.825.631-1.668.935-2.478l3.486.806,31.9-97.753,4,14.442c.343,1.374.65,2.653.913,3.825,4.6,20.426,7.853,58.515-.323,73.851H394.079V380.033s3.6-7.757,7.322-18.5l-.021.288a103.993,103.993,0,0,0,3.806-12.429q.757-2.743,1.427-5.557l.961.991,33.92,35.47a14.424,14.424,0,0,0,16.178,2.974L543.8,344.3l-1.423-3.054c.465-.25.822-.443,1.065-.575,2.636.934,6.7,2.355,9.9,1.427,4.683-1.355,12.119-4.6,15.272-5.854s3.367-3.042,3.162-4.169S570.67,329.954,569.462,330.368Z" transform="translate(62.472 21.003)"/>
    <g id="Group_262" data-name="Group 262" transform="translate(269.416 141.319)">
      <path id="Path_470" data-name="Path 470" class="cls-23" d="M479.768,165.908,447.607,296.916c-.056.228.023.453.172.49l8.147,2.054c.145.036.3-.119.338-.344l24.015-133.063C480.371,165.545,479.89,165.407,479.768,165.908Z" transform="translate(-104.269 -100.665)"/>
      <path id="Path_471" data-name="Path 471" class="cls-24" d="M460.493,284.158c4.683-1.355,12.117-4.6,15.272-5.854s3.367-3.042,3.162-4.169-1.113-2.121-2.319-1.706c-.063.021-.138.049-.211.076l-.017-.062c.122-.04.231-.076.368-.123,1.7-.585,1.912-2.968,1.487-3.935a2.422,2.422,0,0,0-3.056-1.471c-.106.037-.215.079-.321.118l-.016-.052c.181-.06.351-.115.548-.182,2.528-.87,2.6-3.12,1.877-4.709a3.183,3.183,0,0,0-3.736-1.628c-.125.042-.288.1-.473.172l-.032-.108c2.078-1.027,2.844-2.726,2.171-4.44a3.234,3.234,0,0,0-4.371-1.919c-.585.229-1.691.539-3.133.954l.189-.118c-2.686-.9-10.811-1.953-14.211-.376C450.947,255.892,447,263.2,444.89,267c-.4.614-.794,1.289-1.192,2.051-1.339,2.563-24.017,7.372-27.543,9.664-2.115,1.374,2.111,14.016,4.543,14.577,1.186.274,26.151-11.1,27.38-11.267S455.811,285.513,460.493,284.158Z" transform="translate(-118.161 -62.377)"/>
      <g id="Group_248" data-name="Group 248" transform="translate(157.842 157.332)">
        <path id="Path_472" data-name="Path 472" class="cls-24" d="M346.2,235.887A15.713,15.713,0,0,0,321.723,255.6c.856,1.064,68.887,70.876,68.887,70.876A13.288,13.288,0,0,0,411.3,309.806Z" transform="translate(-318.246 -230.031)"/>
        <g id="Group_247" data-name="Group 247" transform="translate(68.778 46.611)">
          <path id="Path_473" data-name="Path 473" class="cls-24" d="M383.25,316.718a13.293,13.293,0,0,1-16.432-8.795,13.532,13.532,0,0,1,8.482-16.814h0s21.372-10.867,92.04-28.574l5.052,16.206s-55.645,30.483-88.269,37.68C383.909,316.469,383.25,316.718,383.25,316.718Z" transform="translate(-366.208 -262.535)"/>
        </g>
      </g>
      <path id="Path_474" data-name="Path 474" class="cls-25" d="M483.912,276.285l-79.579,21.793L387.9,278.149l-34.971-43.177A20.508,20.508,0,0,0,320.984,260.7c.6.741,14.765,15,36.739,37.656l33.92,35.47a14.424,14.424,0,0,0,16.178,2.974l86.129-38.968Z" transform="translate(-161.166 -73.85)"/>
      <path id="Path_475" data-name="Path 475" class="cls-25" d="M376.434,336.654v73.529H259.013c8.175-15.337,4.927-53.425.321-73.851-4.213-18.791-19.712-65.032-16.649-90.549,1.82-15.152,21.969-21.3,38.043-23.787a145.333,145.333,0,0,1,20.151-1.728c29.637.945,49.05,3.063,61.877,6.518,28.762,7.692,24.593,22.107,28.485,45.044C395.341,295.961,376.434,336.654,376.434,336.654Z" transform="translate(-193.371 -76.937)"/>
      <g id="Group_252" data-name="Group 252" transform="translate(0 154.315)">
        <path id="Path_476" data-name="Path 476" class="cls-24" d="M210.407,373.779c-1.05,4.761-1.758,12.842-2.162,16.211s1.06,4.412,2.148,4.772,2.395.037,2.607-1.222c.011-.066.023-.143.034-.221l.063.014c-.023.126-.043.239-.067.381-.3,1.771,1.692,3.1,2.743,3.189a2.422,2.422,0,0,0,2.753-1.98c.019-.112.034-.225.052-.338l.053.011c-.034.186-.069.363-.1.568-.445,2.637,1.5,3.779,3.238,3.9a3.183,3.183,0,0,0,3.216-2.5c.023-.129.047-.3.075-.5l.11.026c-.092,2.316,1.034,3.8,2.861,4.028A3.232,3.232,0,0,0,231.8,397.2c.079-.622.336-1.742.663-3.206l.013.221c2.078-1.926,6.885-8.558,7.126-12.3.192-3-4.335-9.955-6.668-13.632-.347-.644-.751-1.314-1.23-2.028-1.612-2.4,5.01-24.618,4.685-28.809-.2-2.514-13.319-4.85-14.975-2.983-.807.912-2.758,28.276-3.2,29.434S211.457,369.02,210.407,373.779Z" transform="translate(-208.176 -181.984)"/>
        <g id="Group_251" data-name="Group 251" transform="translate(5.91)">
          <g id="Group_250" data-name="Group 250" transform="translate(2.715 3.084)">
            <path id="Path_477" data-name="Path 477" class="cls-24" d="M279.965,250.028A14.483,14.483,0,0,0,253.138,239.1c-.476,1.166-26.367,87.2-26.367,87.2a12.247,12.247,0,0,0,22.683,9.236Z" transform="translate(-209.091 -230.078)"/>
            <g id="Group_249" data-name="Group 249" transform="translate(0 85.774)">
              <path id="Path_478" data-name="Path 478" class="cls-24" d="M232.418,298.261a12.254,12.254,0,0,1,15.308-7.8,12.473,12.473,0,0,1,8.251,15.272h0s-3.037,21.892-26.868,84.675L214.19,385.7s6.252-58.15,17.992-86.617C232.259,298.89,232.418,298.261,232.418,298.261Z" transform="translate(-214.19 -289.892)"/>
            </g>
          </g>
          <path id="Path_479" data-name="Path 479" class="cls-25" d="M279.956,229.451A20.068,20.068,0,0,0,253.77,240.3c-.371.9-6.444,21.608-16.3,53.643,0,0-22.425,74.664-25.168,113.179l23.238,5.37,34.813-106.676,20.5-50.282A20.065,20.065,0,0,0,279.956,229.451Z" transform="translate(-212.297 -227.927)"/>
        </g>
      </g>
      <g id="Group_261" data-name="Group 261" transform="translate(62.37)">
        <path id="Path_480" data-name="Path 480" class="cls-26" d="M368.42,254.017l-21.232.439-68.579,1.427-23.535.483c-4.421-32.539-4.192-57.2-1.289-75.925,9.142-59.206,44.95-58.744,44.95-58.744,10.686-1.934,19.874-1.774,27.7.092C388.317,136.251,368.42,254.017,368.42,254.017Z" transform="translate(-251.669 -120.316)"/>
        <path id="Path_481" data-name="Path 481" class="cls-27" d="M350.256,199.538c-.184,6.01-.392,12.044-.6,18.054-.115,3.685-.231,7.415-1.405,10.916-1.2,3.592-3.43,6.7-5.618,9.787-.506.714-1.014,1.405-1.543,2.119l-68.579,1.427a28.271,28.271,0,0,1-2.694-5.089c-5.2-12.274-4.329-26.161-3.386-39.448.323-4.65,1.152-9.533.668-14.185-.3-2.786-1.22-5.181-.829-8.059,1.037-7.554,7.161-14.416,13.656-17.939,8.544-4.629,18.791-5.135,28.416-3.823,9.212,1.243,18.354,4.169,25.954,9.556s13.54,13.4,15.337,22.545C350.556,190.028,350.418,194.817,350.256,199.538Z" transform="translate(-245.573 -106.275)"/>
        <path id="Path_482" data-name="Path 482" class="cls-24" d="M303.25,254.885h0c-9.289-.07-16.772-8.983-16.712-19.905l.172-31.537,33.643.257-.174,31.537C320.12,246.158,312.54,254.955,303.25,254.885Z" transform="translate(-236.536 -84.238)"/>
        <path id="Path_483" data-name="Path 483" class="cls-28" d="M286.587,209.672s19.229,8.656,33.715-3.268l-.05,9.592S295.425,224.15,286.587,209.672Z" transform="translate(-236.515 -82.953)"/>
        <g id="Group_253" data-name="Group 253" transform="translate(15.531 64.689)">
          <path id="Path_484" data-name="Path 484" class="cls-24" d="M282.089,176.272a9.821,9.821,0,1,1-8.743-10.791A9.821,9.821,0,0,1,282.089,176.272Z" transform="translate(-262.5 -165.427)"/>
          <path id="Path_485" data-name="Path 485" class="cls-29" d="M274.84,173.706a4.724,4.724,0,1,1-4.725-4.725A4.724,4.724,0,0,1,274.84,173.706Z" transform="translate(-261.245 -163.885)"/>
        </g>
        <path id="Path_486" data-name="Path 486" class="cls-24" d="M349.916,203.135c-2.489,16.809-9.421,32.378-22.586,38.525-26.526,12.387-50.9-2.1-57.7-37.615-.083-.47-.184-.925-.251-1.4-2.2-12.559-1.4-25.088.535-35.985.435-2.368.885-4.656,1.4-6.852,6.53-28.286,44.718-38.258,65.332-16.731a45.841,45.841,0,0,1,9,13.563,63.218,63.218,0,0,1,3.942,14.237A105.531,105.531,0,0,1,349.916,203.135Z" transform="translate(-244.557 -115.482)"/>
        <g id="Group_255" data-name="Group 255" transform="translate(91.505 66.436)">
          <g id="Group_254" data-name="Group 254">
            <path id="Path_487" data-name="Path 487" class="cls-26" d="M315.48,172.282c0,3.115,1.884,5.64,4.212,5.64s4.213-2.524,4.215-5.637-1.884-5.64-4.212-5.64S315.481,169.169,315.48,172.282Z" transform="translate(-315.48 -166.645)"/>
          </g>
        </g>
        <g id="Group_257" data-name="Group 257" transform="translate(55.896 65.75)">
          <g id="Group_256" data-name="Group 256">
            <path id="Path_488" data-name="Path 488" class="cls-26" d="M290.648,172.1c0,3.278,1.982,5.935,4.433,5.935s4.435-2.656,4.435-5.934-1.982-5.934-4.433-5.935S290.648,168.824,290.648,172.1Z" transform="translate(-290.648 -166.167)"/>
          </g>
        </g>
        <path id="Path_489" data-name="Path 489" class="cls-30" d="M306.773,167.362c-.143,4.182-.2,8.674,2.127,12.149,1.491,2.224,3.919,3.955,4.48,6.575.545,2.551-.985,5.217-3.166,6.647a14.02,14.02,0,0,1-7.491,1.876" transform="translate(-229.512 -99.898)"/>
        <path id="Path_490" data-name="Path 490" class="cls-26" d="M303.355,130.557s2.17,29.865,33.312,34.97C336.667,165.527,338.071,126.218,303.355,130.557Z" transform="translate(-229.237 -116.017)"/>
        <path id="Path_491" data-name="Path 491" class="cls-26" d="M331.864,165.161s-10.767-14.41-16.771-8.7-3.3,6.3-3.3,6.3Z" transform="translate(-225.839 -105.211)"/>
        <path id="Path_492" data-name="Path 492" class="cls-26" d="M282.9,165.128s16.44-15.687,21.942-9.046c3.209,3.875.519,6.054.519,6.054Z" transform="translate(-238.115 -105.505)"/>
        <g id="Group_258" data-name="Group 258" transform="translate(60.988 102.333)">
          <path id="Path_493" data-name="Path 493" class="cls-31" d="M323.569,193.217a19.236,19.236,0,0,1-6.1,8.253,14.646,14.646,0,0,1-8.142,2.988,12.928,12.928,0,0,1-8.353-2.4,21.188,21.188,0,0,1-6.774-8.79c17.871-3.47,28.912-.185,29.354-.056Z" transform="translate(-294.199 -191.678)"/>
          <path id="Path_494" data-name="Path 494" class="cls-32" d="M323.569,193.217s-.39.951-3.021,1.982-20.416.965-22.442.452a10.115,10.115,0,0,1-3.906-2.386c17.871-3.47,28.912-.185,29.354-.056Z" transform="translate(-294.199 -191.678)"/>
          <path id="Path_495" data-name="Path 495" class="cls-33" d="M315.418,199.2a14.646,14.646,0,0,1-8.142,2.988,12.928,12.928,0,0,1-8.353-2.4C302.251,197.934,309.82,194.652,315.418,199.2Z" transform="translate(-292.149 -189.411)"/>
        </g>
        <path id="Path_496" data-name="Path 496" class="cls-34" d="M346.987,163a13.024,13.024,0,0,0-1.942-1.076,12.492,12.492,0,0,0-2-.737,13.84,13.84,0,0,0-3.866-.548c-.191,0-.371,0-.562.016a13.33,13.33,0,0,0-1.648.158,14.189,14.189,0,0,0-11.779,11.915,9.147,9.147,0,0,0-6.806.149A15.464,15.464,0,0,0,303,159.182a15.378,15.378,0,0,0-10.369,4.008,15.587,15.587,0,0,0-4.081,5.935l-14.274-2.33-2.2-.363h-.033l-3.9-.644-.065.413-.126.76-.182,1.117-.007.056.293.049,2.194.354.214.04h.009l.951.152.009.006.988.159.564.1.761.119,5.869.957,8.253,1.348a15.481,15.481,0,1,0,30.593,4.008c1.245-.571,4.349-1.7,6.591-.024a14.559,14.559,0,0,0,.261,2.2,14.234,14.234,0,0,0,12.707,11.31,10.716,10.716,0,0,0,1.164.056c.215,0,.42-.006.634-.014a12.4,12.4,0,0,0,1.639-.175,1.808,1.808,0,0,0,.287-.047.931.931,0,0,0,.141-.023,14.119,14.119,0,0,0,3.257-1.054,14.172,14.172,0,0,0,2.511-1.5c.047-.033.087-.065.126-.1a13.305,13.305,0,0,0,1.689-1.53A14.133,14.133,0,0,0,346.987,163Zm-40.359,24.272a12.735,12.735,0,0,1-3.628.515,13.129,13.129,0,1,1,3.628-.515Zm41.609-4.959a8.208,8.208,0,0,1-.681.751,9.775,9.775,0,0,1-1.187,1.055,11.245,11.245,0,0,1-1.932,1.219,11.8,11.8,0,0,1-2.844,1c-.089.019-.176.033-.264.05a.661.661,0,0,1-.118.016,9.557,9.557,0,0,1-1.52.166c-.166.014-.341.014-.516.014a11.788,11.788,0,0,1-11.74-10.811c-.03-.318-.047-.642-.047-.968a10.812,10.812,0,0,1,.1-1.529,11.8,11.8,0,0,1,9.926-10.123,11.771,11.771,0,0,1,10.82,19.161Z" transform="translate(-244.687 -103.448)"/>
        <path id="Path_497" data-name="Path 497" class="cls-26" d="M267.481,182.532s55.267-31.733,55.267-50.507c0,0-33.319-13.751-47.863,5.289S267.481,182.532,267.481,182.532Z" transform="translate(-245.567 -117.318)"/>
        <path id="Path_498" data-name="Path 498" class="cls-35" d="M325.8,121.789c-3.363,7.047-9.1,13.148-14.739,18.7a15.422,15.422,0,0,0,.323-8.729A97.435,97.435,0,0,1,275.9,172.727a26.078,26.078,0,0,0,.483-13.173,88.606,88.606,0,0,1-23.235,20.886c9.142-59.206,44.95-58.744,44.95-58.744C308.782,119.762,317.969,119.923,325.8,121.789Z" transform="translate(-251.029 -120.316)"/>
        <g id="Group_260" data-name="Group 260" class="cls-36" transform="translate(68.674 117.627)">
          <g id="Group_259" data-name="Group 259">
            <path id="Path_499" data-name="Path 499" d="M299.559,202.343a15.121,15.121,0,0,0,12.576.71A6.507,6.507,0,0,1,306.3,206,10.746,10.746,0,0,1,299.559,202.343Z" transform="translate(-299.559 -202.343)"/>
          </g>
        </g>
      </g>
      <path id="Path_500" data-name="Path 500" class="cls-24" d="M351.122,226.785c-3.086,10.316-11.032,24.732-31.5,31.6-26.184,8.773-43.869-22.016-50.524-36.385a145.333,145.333,0,0,1,20.151-1.728C318.881,221.212,338.295,223.33,351.122,226.785Z" transform="translate(-181.737 -76.937)"/>
      <path id="Path_501" data-name="Path 501" class="cls-37" d="M347.561,278.665s-3.35,13.96-5.217,18.028l1.245-16.224-5.934-10.1Z" transform="translate(-151.981 -55.192)"/>
      <path id="Path_502" data-name="Path 502" class="cls-37" d="M250.709,294.467l6.222-20.293L255.5,293.8l-.383,16.56Z" transform="translate(-189.716 -53.541)"/>
    </g>
    <g id="Group_265" data-name="Group 265" transform="translate(67.072 71.923)">
      <path id="Path_503" data-name="Path 503" class="cls-7" d="M199.968,202.135v49.991l64.811-14.561.119-2.846C264.845,234.706,227.973,227.005,199.968,202.135Z" transform="translate(-9.394 -15.41)"/>
      <g id="Group_264" data-name="Group 264">
        <g id="Group_263" data-name="Group 263">
          <path id="Path_504" data-name="Path 504" class="cls-38" d="M67.072,75.9s22.765,52.532,31.519,115.57,56.034,112.068,105.063,115.57L325.061,279.61S227,259.181,210.659,180.967s-8.172-95.141-28.6-106.231Z" transform="translate(-67.072 -70.702)"/>
          <path id="Path_505" data-name="Path 505" class="cls-38" d="M67.072,76.772l3.454-4.037,8.658,9.388Z" transform="translate(-67.072 -71.571)"/>
          <path id="Path_506" data-name="Path 506" class="cls-8" d="M327.462,276.8,269.075,289.98l-63.017,14.244c-49.019-3.5-96.3-52.535-105.057-115.567S69.484,73.09,69.484,73.09l79.95-.815,35.033-.353c20.422,11.093,12.261,28.012,28.6,106.224S327.462,276.8,327.462,276.8Z" transform="translate(-66.025 -71.923)"/>
          <path id="Path_507" data-name="Path 507" class="cls-39" d="M165.771,242.222l-3.454,4.037,124.714-28.017.146-3.453Z" transform="translate(-25.735 -9.918)"/>
        </g>
        <path id="Path_508" data-name="Path 508" class="cls-9" d="M80.822,83.068l97.533-4.816,3.086,8.278L82.628,93.3Z" transform="translate(-61.104 -69.176)"/>
        <path id="Path_509" data-name="Path 509" class="cls-9" d="M83.813,95.718l97.683-7.6,2.032,8.579L85.62,105.953Z" transform="translate(-59.806 -64.894)"/>
        <path id="Path_510" data-name="Path 510" class="cls-9" d="M86.647,107.491l97.006-10.084,2.483,8.128L88.454,117.726Z" transform="translate(-58.576 -60.863)"/>
        <path id="Path_511" data-name="Path 511" class="cls-9" d="M110.922,190.213l88.656-22.126,4.335,7.039-89.475,24.154Z" transform="translate(-48.041 -30.187)"/>
        <path id="Path_512" data-name="Path 512" class="cls-9" d="M115.812,201.291,204.1,176.582l3.423,7.506-88.195,26.27Z" transform="translate(-45.919 -26.5)"/>
        <path id="Path_513" data-name="Path 513" class="cls-9" d="M120.414,211.546l87.216-26.866,3.755,7.01-87.455,28.923Z" transform="translate(-43.921 -22.986)"/>
        <path id="Path_514" data-name="Path 514" class="cls-9" d="M134.667,119.817l-2.1,15.652L113.5,142.93l15.088,13.435,2.568,19.737,15.862-15.347,19.567,9.031-6.924-21.072,7.554-13.516-18.692-1.536Z" transform="translate(-46.923 -51.137)"/>
        <path id="Path_515" data-name="Path 515" class="cls-7" d="M303.265,276.8,244.878,289.98A29.9,29.9,0,0,0,243.507,282c-5.758-17.638-28.026-22.8-41.319-35.74-13.117-12.75-16.58-32.112-20.558-49.982A420.994,420.994,0,0,0,151.1,107.554c-4.48-9.424-9.612-18.78-16.362-26.8a56.624,56.624,0,0,0-9.5-8.474l35.033-.353c20.422,11.093,12.261,28.012,28.6,106.224S303.265,276.8,303.265,276.8Z" transform="translate(-41.828 -71.923)"/>
      </g>
    </g>
  </g>
</svg>
